<svg width="20" height="20" viewBox="0 0 20 20" fill="none" xmlns="http://www.w3.org/2000/svg">
<path d="M16.0332 4.65046H15.6998L12.8832 1.83379C12.6582 1.60879 12.2915 1.60879 12.0582 1.83379C11.8332 2.05879 11.8332 2.42546 12.0582 2.65879L14.0498 4.65046H5.94984L7.9415 2.65879C8.1665 2.43379 8.1665 2.06712 7.9415 1.83379C7.7165 1.60879 7.34984 1.60879 7.1165 1.83379L4.30817 4.65046H3.97484C3.22484 4.65046 1.6665 4.65046 1.6665 6.78379C1.6665 7.59212 1.83317 8.12546 2.18317 8.47546C2.38317 8.68379 2.62484 8.79212 2.88317 8.85046C3.12484 8.90879 3.38317 8.91712 3.63317 8.91712H16.3665C16.6248 8.91712 16.8665 8.90045 17.0998 8.85046C17.7998 8.68379 18.3332 8.18379 18.3332 6.78379C18.3332 4.65046 16.7748 4.65046 16.0332 4.65046Z" fill="#3B3B3B"/>
<path d="M15.875 10H4.05838C3.54171 10 3.15005 10.4583 3.23338 10.9667L3.93338 15.25C4.16671 16.6833 4.79171 18.3333 7.56671 18.3333H12.2417C15.05 18.3333 15.55 16.925 15.85 15.35L16.6917 10.9917C16.7917 10.475 16.4 10 15.875 10ZM8.84171 15.375C8.84171 15.7 8.58338 15.9583 8.26671 15.9583C7.94171 15.9583 7.68338 15.7 7.68338 15.375V12.625C7.68338 12.3083 7.94171 12.0417 8.26671 12.0417C8.58338 12.0417 8.84171 12.3083 8.84171 12.625V15.375ZM12.4084 15.375C12.4084 15.7 12.15 15.9583 11.825 15.9583C11.5084 15.9583 11.2417 15.7 11.2417 15.375V12.625C11.2417 12.3083 11.5084 12.0417 11.825 12.0417C12.15 12.0417 12.4084 12.3083 12.4084 12.625V15.375Z" fill="#3B3B3B"/>
</svg>
