<svg width="25" height="26" viewBox="0 0 25 26" fill="none" xmlns="http://www.w3.org/2000/svg">
<path d="M2.17041 10.6649V20.6868C2.17265 21.1633 2.26881 21.6345 2.45324 22.0737C2.63766 22.513 2.9068 22.9118 3.24533 23.247C3.58385 23.5822 3.98511 23.8476 4.42617 24.0278C4.86723 24.2079 5.33948 24.2992 5.8159 24.2968H18.4643C18.9407 24.2995 19.4128 24.2084 19.8539 24.0287C20.295 23.8489 20.6965 23.584 21.0352 23.2491C21.3739 22.9142 21.6434 22.516 21.8282 22.077C22.013 21.638 22.1095 21.1667 22.1122 20.6904V10.6575" stroke="#7F55DF" stroke-width="1.5" stroke-linecap="round" stroke-linejoin="round"/>
<path d="M8.7356 24.2932V19.4791C8.7356 18.5759 9.09424 17.7099 9.73285 17.0713C10.3715 16.4326 11.2377 16.0739 12.1408 16.0739C12.5886 16.0729 13.0322 16.1602 13.4462 16.3309C13.8602 16.5016 14.2364 16.7523 14.5534 17.0686C14.8704 17.3849 15.122 17.7607 15.2935 18.1743C15.4651 18.5879 15.5535 19.0313 15.5535 19.4791V24.2932" stroke="#7F55DF" stroke-width="1.5" stroke-linecap="round" stroke-linejoin="round"/>
<path d="M15.8557 7.82627C15.8554 8.8113 15.4639 9.75578 14.7672 10.4522C14.0706 11.1486 13.1259 11.54 12.1409 11.54V11.54C11.156 11.54 10.2114 11.1486 9.51496 10.4522C8.81852 9.75575 8.42725 8.81119 8.42725 7.82627V6.66492" stroke="#7F55DF" stroke-width="1.5" stroke-linecap="round" stroke-linejoin="round"/>
<path d="M8.42726 7.82632C8.42726 8.81124 8.03599 9.7558 7.33955 10.4522C6.64311 11.1487 5.69854 11.5401 4.71363 11.5401V11.5401C3.72871 11.5401 2.78415 11.1487 2.08771 10.4522C1.39127 9.7558 1 8.81124 1 7.82632V4.60024C1 3.83189 1.30517 3.09488 1.84848 2.55157C2.39178 2.00827 3.12865 1.70325 3.89699 1.70325H20.386C21.1543 1.70325 21.8912 2.00827 22.4345 2.55157C22.9778 3.09488 23.283 3.83189 23.283 4.60024V7.82632C23.283 8.81124 22.8917 9.7558 22.1952 10.4522C21.4988 11.1487 20.5542 11.5401 19.5693 11.5401C18.5844 11.5401 17.6399 11.1487 16.9434 10.4522C16.247 9.7558 15.8557 8.81124 15.8557 7.82632V6.66497" stroke="#7F55DF" stroke-width="1.5" stroke-linecap="round" stroke-linejoin="round"/>
</svg>
