<svg width="147" height="49" viewBox="0 0 147 49" fill="none" xmlns="http://www.w3.org/2000/svg">
<circle cx="3.5" cy="3.5" r="3.5" transform="matrix(-1 0 0 1 7 0)" fill="#D9D9D9"/>
<circle cx="3.5" cy="3.5" r="3.5" transform="matrix(-1 0 0 1 7 14)" fill="#D9D9D9"/>
<circle cx="3.5" cy="3.5" r="3.5" transform="matrix(-1 0 0 1 7 28)" fill="#D9D9D9"/>
<circle cx="3.5" cy="3.5" r="3.5" transform="matrix(-1 0 0 1 7 42)" fill="#D9D9D9"/>
<circle cx="3.5" cy="3.5" r="3.5" transform="matrix(-1 0 0 1 21 0)" fill="#D9D9D9"/>
<circle cx="3.5" cy="3.5" r="3.5" transform="matrix(-1 0 0 1 21 14)" fill="#D9D9D9"/>
<circle cx="3.5" cy="3.5" r="3.5" transform="matrix(-1 0 0 1 21 28)" fill="#D9D9D9"/>
<circle cx="3.5" cy="3.5" r="3.5" transform="matrix(-1 0 0 1 21 42)" fill="#D9D9D9"/>
<circle cx="3.5" cy="3.5" r="3.5" transform="matrix(-1 0 0 1 35 0)" fill="#D9D9D9"/>
<circle cx="3.5" cy="3.5" r="3.5" transform="matrix(-1 0 0 1 35 14)" fill="#D9D9D9"/>
<circle cx="3.5" cy="3.5" r="3.5" transform="matrix(-1 0 0 1 35 28)" fill="#D9D9D9"/>
<circle cx="3.5" cy="3.5" r="3.5" transform="matrix(-1 0 0 1 35 42)" fill="#D9D9D9"/>
<circle cx="3.5" cy="3.5" r="3.5" transform="matrix(-1 0 0 1 49 0)" fill="#D9D9D9"/>
<circle cx="3.5" cy="3.5" r="3.5" transform="matrix(-1 0 0 1 49 14)" fill="#D9D9D9"/>
<circle cx="3.5" cy="3.5" r="3.5" transform="matrix(-1 0 0 1 49 28)" fill="#D9D9D9"/>
<circle cx="3.5" cy="3.5" r="3.5" transform="matrix(-1 0 0 1 49 42)" fill="#D9D9D9"/>
<circle cx="3.5" cy="3.5" r="3.5" transform="matrix(-1 0 0 1 63 0)" fill="#D9D9D9"/>
<circle cx="3.5" cy="3.5" r="3.5" transform="matrix(-1 0 0 1 63 14)" fill="#D9D9D9"/>
<circle cx="3.5" cy="3.5" r="3.5" transform="matrix(-1 0 0 1 63 28)" fill="#D9D9D9"/>
<circle cx="3.5" cy="3.5" r="3.5" transform="matrix(-1 0 0 1 63 42)" fill="#D9D9D9"/>
<circle cx="3.5" cy="3.5" r="3.5" transform="matrix(-1 0 0 1 77 0)" fill="#D9D9D9"/>
<circle cx="3.5" cy="3.5" r="3.5" transform="matrix(-1 0 0 1 77 14)" fill="#D9D9D9"/>
<circle cx="3.5" cy="3.5" r="3.5" transform="matrix(-1 0 0 1 77 28)" fill="#D9D9D9"/>
<circle cx="3.5" cy="3.5" r="3.5" transform="matrix(-1 0 0 1 77 42)" fill="#D9D9D9"/>
<circle cx="3.5" cy="3.5" r="3.5" transform="matrix(-1 0 0 1 91 0)" fill="#D9D9D9"/>
<circle cx="3.5" cy="3.5" r="3.5" transform="matrix(-1 0 0 1 91 14)" fill="#D9D9D9"/>
<circle cx="3.5" cy="3.5" r="3.5" transform="matrix(-1 0 0 1 91 28)" fill="#D9D9D9"/>
<circle cx="3.5" cy="3.5" r="3.5" transform="matrix(-1 0 0 1 91 42)" fill="#D9D9D9"/>
<circle cx="3.5" cy="3.5" r="3.5" transform="matrix(-1 0 0 1 105 0)" fill="#D9D9D9"/>
<circle cx="3.5" cy="3.5" r="3.5" transform="matrix(-1 0 0 1 105 14)" fill="#D9D9D9"/>
<circle cx="3.5" cy="3.5" r="3.5" transform="matrix(-1 0 0 1 105 28)" fill="#D9D9D9"/>
<circle cx="3.5" cy="3.5" r="3.5" transform="matrix(-1 0 0 1 105 42)" fill="#D9D9D9"/>
<circle cx="3.5" cy="3.5" r="3.5" transform="matrix(-1 0 0 1 119 0)" fill="#D9D9D9"/>
<circle cx="3.5" cy="3.5" r="3.5" transform="matrix(-1 0 0 1 119 14)" fill="#D9D9D9"/>
<circle cx="3.5" cy="3.5" r="3.5" transform="matrix(-1 0 0 1 119 28)" fill="#D9D9D9"/>
<circle cx="3.5" cy="3.5" r="3.5" transform="matrix(-1 0 0 1 119 42)" fill="#D9D9D9"/>
<circle cx="3.5" cy="3.5" r="3.5" transform="matrix(-1 0 0 1 133 0)" fill="#D9D9D9"/>
<circle cx="3.5" cy="3.5" r="3.5" transform="matrix(-1 0 0 1 133 14)" fill="#D9D9D9"/>
<circle cx="3.5" cy="3.5" r="3.5" transform="matrix(-1 0 0 1 133 28)" fill="#D9D9D9"/>
<circle cx="3.5" cy="3.5" r="3.5" transform="matrix(-1 0 0 1 133 42)" fill="#D9D9D9"/>
<circle cx="3.5" cy="3.5" r="3.5" transform="matrix(-1 0 0 1 147 0)" fill="#D9D9D9"/>
<circle cx="3.5" cy="3.5" r="3.5" transform="matrix(-1 0 0 1 147 14)" fill="#D9D9D9"/>
<circle cx="3.5" cy="3.5" r="3.5" transform="matrix(-1 0 0 1 147 28)" fill="#D9D9D9"/>
<circle cx="3.5" cy="3.5" r="3.5" transform="matrix(-1 0 0 1 147 42)" fill="#D9D9D9"/>
</svg>
