<svg width="20" height="20" viewBox="0 0 20 20" fill="none" xmlns="http://www.w3.org/2000/svg">
<path d="M15.3918 14.0253L15.7168 16.6587C15.8002 17.3503 15.0585 17.8337 14.4668 17.4753L11.5835 15.7587C11.3835 15.642 11.3335 15.392 11.4418 15.192C11.8585 14.4253 12.0835 13.5587 12.0835 12.692C12.0835 9.64199 9.46682 7.15866 6.25016 7.15866C5.59182 7.15866 4.95016 7.25866 4.35016 7.45866C4.04182 7.55866 3.74182 7.27533 3.81682 6.95866C4.57516 3.92533 7.49182 1.66699 10.9752 1.66699C15.0418 1.66699 18.3335 4.74199 18.3335 8.53366C18.3335 10.7837 17.1752 12.7753 15.3918 14.0253Z" fill="#3B3B3B"/>
<path d="M10.8332 12.6915C10.8332 13.6832 10.4665 14.5999 9.84984 15.3249C9.02484 16.3249 7.7165 16.9665 6.24984 16.9665L4.07484 18.2582C3.70817 18.4832 3.2415 18.1749 3.2915 17.7499L3.49984 16.1082C2.38317 15.3332 1.6665 14.0915 1.6665 12.6915C1.6665 11.2249 2.44984 9.9332 3.64984 9.16654C4.3915 8.6832 5.28317 8.4082 6.24984 8.4082C8.78317 8.4082 10.8332 10.3249 10.8332 12.6915Z" fill="#3B3B3B"/>
</svg>
