<svg width="51" height="51" viewBox="0 0 51 51" fill="none" xmlns="http://www.w3.org/2000/svg">
<mask id="path-1-inside-1_149_17761" fill="white">
<path d="M41.6694 36.4939C43.5741 36.4939 45.1932 38.1129 45.1932 40.0177C45.1932 40.9701 44.8122 41.8272 44.1456 42.4939C43.4789 43.1606 42.6218 43.5415 41.6694 43.5415C39.7646 43.5415 38.1456 42.0177 38.1456 40.0177C38.1456 39.351 38.4313 38.6844 38.8122 38.1129H19.9551C20.2408 38.6844 20.5265 39.351 20.5265 40.0177C20.5265 40.9701 20.1456 41.8272 19.4789 42.4939C18.8122 43.1606 17.9551 43.5415 17.0027 43.5415C15.098 43.5415 13.4789 42.0177 13.4789 40.0177C13.4789 39.0653 13.8599 38.2082 14.5265 37.5415C14.6218 37.4463 14.8122 37.4463 14.9075 37.351C14.0503 36.6844 13.4789 35.732 13.4789 34.5891C13.4789 33.6367 13.8599 32.7796 14.5265 32.1129C15.0027 31.732 15.4789 31.4463 16.0503 31.2558L12.1456 15.8272L11.0027 11.0653H6.24082C5.76462 11.0653 5.38367 10.6844 5.38367 10.2082C5.38367 9.73198 5.76462 9.44627 6.24082 9.44627H11.5741C11.9551 9.44627 12.3361 9.63674 12.4313 10.0177L13.5741 14.8748H45.4789C45.7646 14.8748 45.9551 14.9701 46.1456 15.1606C46.2408 15.351 46.3361 15.6367 46.2408 15.8272L42.2408 32.1129C42.1456 32.4939 41.7646 32.6844 41.3837 32.6844H17.0027C16.5265 32.6844 16.0503 32.8748 15.6694 33.2558C15.2884 33.6367 15.098 34.1129 15.098 34.5891C15.098 35.6367 15.9551 36.4939 17.0027 36.4939H41.6694ZM44.4313 16.3986H13.9551L17.6694 31.0653H40.8122L44.4313 16.3986ZM18.9075 40.0177C18.9075 38.9701 18.0503 38.1129 17.0027 38.1129C16.5265 38.1129 16.0503 38.3034 15.6694 38.6844C15.2884 39.0653 15.098 39.5415 15.098 40.0177C15.098 41.0653 15.9551 41.9225 17.0027 41.9225C17.5741 41.9225 18.0503 41.732 18.3361 41.351C18.717 41.0653 18.9075 40.5891 18.9075 40.0177ZM43.0027 41.351C43.3837 41.0653 43.5741 40.5891 43.5741 40.0177C43.5741 38.9701 42.717 38.1129 41.6694 38.1129C41.1932 38.1129 40.717 38.3034 40.3361 38.6844C39.9551 39.0653 39.7646 39.5415 39.7646 40.0177C39.7646 41.0653 40.6218 41.9225 41.6694 41.9225C42.1456 41.9225 42.6218 41.732 43.0027 41.351Z"/>
</mask>
<path d="M41.6694 36.4939C43.5741 36.4939 45.1932 38.1129 45.1932 40.0177C45.1932 40.9701 44.8122 41.8272 44.1456 42.4939C43.4789 43.1606 42.6218 43.5415 41.6694 43.5415C39.7646 43.5415 38.1456 42.0177 38.1456 40.0177C38.1456 39.351 38.4313 38.6844 38.8122 38.1129H19.9551C20.2408 38.6844 20.5265 39.351 20.5265 40.0177C20.5265 40.9701 20.1456 41.8272 19.4789 42.4939C18.8122 43.1606 17.9551 43.5415 17.0027 43.5415C15.098 43.5415 13.4789 42.0177 13.4789 40.0177C13.4789 39.0653 13.8599 38.2082 14.5265 37.5415C14.6218 37.4463 14.8122 37.4463 14.9075 37.351C14.0503 36.6844 13.4789 35.732 13.4789 34.5891C13.4789 33.6367 13.8599 32.7796 14.5265 32.1129C15.0027 31.732 15.4789 31.4463 16.0503 31.2558L12.1456 15.8272L11.0027 11.0653H6.24082C5.76462 11.0653 5.38367 10.6844 5.38367 10.2082C5.38367 9.73198 5.76462 9.44627 6.24082 9.44627H11.5741C11.9551 9.44627 12.3361 9.63674 12.4313 10.0177L13.5741 14.8748H45.4789C45.7646 14.8748 45.9551 14.9701 46.1456 15.1606C46.2408 15.351 46.3361 15.6367 46.2408 15.8272L42.2408 32.1129C42.1456 32.4939 41.7646 32.6844 41.3837 32.6844H17.0027C16.5265 32.6844 16.0503 32.8748 15.6694 33.2558C15.2884 33.6367 15.098 34.1129 15.098 34.5891C15.098 35.6367 15.9551 36.4939 17.0027 36.4939H41.6694ZM44.4313 16.3986H13.9551L17.6694 31.0653H40.8122L44.4313 16.3986ZM18.9075 40.0177C18.9075 38.9701 18.0503 38.1129 17.0027 38.1129C16.5265 38.1129 16.0503 38.3034 15.6694 38.6844C15.2884 39.0653 15.098 39.5415 15.098 40.0177C15.098 41.0653 15.9551 41.9225 17.0027 41.9225C17.5741 41.9225 18.0503 41.732 18.3361 41.351C18.717 41.0653 18.9075 40.5891 18.9075 40.0177ZM43.0027 41.351C43.3837 41.0653 43.5741 40.5891 43.5741 40.0177C43.5741 38.9701 42.717 38.1129 41.6694 38.1129C41.1932 38.1129 40.717 38.3034 40.3361 38.6844C39.9551 39.0653 39.7646 39.5415 39.7646 40.0177C39.7646 41.0653 40.6218 41.9225 41.6694 41.9225C42.1456 41.9225 42.6218 41.732 43.0027 41.351Z" fill="#21CD9D"/>
<path d="M38.8122 38.1129V34.1129H46.2863L42.1404 40.3317L38.8122 38.1129ZM19.9551 38.1129L16.3774 39.9018L13.483 34.1129H19.9551V38.1129ZM14.9075 37.351L17.3632 34.1936L20.9399 36.9755L17.7359 40.1795L14.9075 37.351ZM14.5265 32.1129L11.6981 29.2845L11.8548 29.1279L12.0277 28.9895L14.5265 32.1129ZM16.0503 31.2558L19.9281 30.2744L20.8395 33.8758L17.3152 35.0505L16.0503 31.2558ZM12.1456 15.8272L8.26784 16.8086L8.26179 16.7847L8.25603 16.7607L12.1456 15.8272ZM11.0027 11.0653V7.06531H14.1563L14.8923 10.1318L11.0027 11.0653ZM12.4313 10.0177L16.3119 9.04755L16.3186 9.0745L16.325 9.10154L12.4313 10.0177ZM13.5741 14.8748V18.8748H10.4061L9.68048 15.791L13.5741 14.8748ZM46.1456 15.1606L48.974 12.3321L49.433 12.7911L49.7233 13.3717L46.1456 15.1606ZM46.2408 15.8272L42.3563 14.8731L42.463 14.4386L42.6631 14.0384L46.2408 15.8272ZM42.2408 32.1129L46.1254 33.067L46.1234 33.0751L46.1214 33.0831L42.2408 32.1129ZM44.4313 16.3986V12.3986H49.5383L48.3148 17.3569L44.4313 16.3986ZM13.9551 16.3986L10.0775 17.3806L8.81584 12.3986H13.9551V16.3986ZM17.6694 31.0653V35.0653H14.5561L13.7918 32.0473L17.6694 31.0653ZM40.8122 31.0653L44.6958 32.0236L43.9452 35.0653H40.8122V31.0653ZM18.3361 41.351L15.1361 38.951L15.4789 38.4939L15.9361 38.151L18.3361 41.351ZM43.0027 41.351L40.1743 38.5226L40.3753 38.3216L40.6027 38.151L43.0027 41.351ZM41.6694 32.4939C45.7833 32.4939 49.1932 35.9038 49.1932 40.0177H41.1932C41.1932 40.2146 41.2748 40.3276 41.3172 40.3699C41.3595 40.4123 41.4725 40.4939 41.6694 40.4939V32.4939ZM49.1932 40.0177C49.1932 42.1003 48.3403 43.956 46.974 45.3223L41.3172 39.6655C41.312 39.6707 41.2762 39.7093 41.2428 39.7873C41.2081 39.8683 41.1932 39.952 41.1932 40.0177H49.1932ZM46.974 45.3223C45.6077 46.6886 43.752 47.5415 41.6694 47.5415V39.5415C41.6037 39.5415 41.52 39.5564 41.4389 39.5911C41.361 39.6245 41.3223 39.6603 41.3172 39.6655L46.974 45.3223ZM41.6694 47.5415C37.6263 47.5415 34.1456 44.297 34.1456 40.0177H42.1456C42.1456 39.9032 42.089 39.7671 41.9951 39.6749C41.9118 39.5931 41.795 39.5415 41.6694 39.5415V47.5415ZM34.1456 40.0177C34.1456 38.2572 34.8714 36.8131 35.484 35.8941L42.1404 40.3317C42.0867 40.4123 42.0775 40.4446 42.087 40.4189C42.0965 40.3934 42.1456 40.2527 42.1456 40.0177H34.1456ZM38.8122 42.1129H19.9551V34.1129H38.8122V42.1129ZM23.5328 36.3241C23.8342 36.9269 24.5265 38.3317 24.5265 40.0177H16.5265C16.5265 40.1358 16.5391 40.2201 16.5471 40.2627C16.5551 40.3048 16.5607 40.317 16.5532 40.2945C16.5458 40.2722 16.5298 40.2287 16.4995 40.1593C16.4691 40.0897 16.4299 40.0068 16.3774 39.9018L23.5328 36.3241ZM24.5265 40.0177C24.5265 42.1003 23.6736 43.956 22.3073 45.3223L16.6505 39.6655C16.6453 39.6707 16.6096 39.7093 16.5761 39.7873C16.5414 39.8683 16.5265 39.952 16.5265 40.0177H24.5265ZM22.3073 45.3223C20.941 46.6886 19.0853 47.5415 17.0027 47.5415V39.5415C16.937 39.5415 16.8533 39.5564 16.7723 39.5911C16.6943 39.6245 16.6557 39.6603 16.6505 39.6655L22.3073 45.3223ZM17.0027 47.5415C12.9596 47.5415 9.47891 44.297 9.47891 40.0177H17.4789C17.4789 39.9032 17.4224 39.7671 17.3284 39.6749C17.2451 39.5931 17.1283 39.5415 17.0027 39.5415V47.5415ZM9.47891 40.0177C9.47891 37.9351 10.3318 36.0794 11.6981 34.7131L17.355 40.3699C17.3601 40.3647 17.3959 40.3261 17.4293 40.2481C17.464 40.1671 17.4789 40.0834 17.4789 40.0177H9.47891ZM11.6981 34.7131C11.9459 34.4653 12.1934 34.2797 12.4077 34.1424C12.62 34.0063 12.812 33.9097 12.9576 33.8435C13.1027 33.7775 13.2259 33.731 13.3033 33.703C13.3764 33.6765 13.4427 33.6547 13.4521 33.6515C13.4784 33.6428 13.4479 33.6527 13.4097 33.6665C13.3673 33.6819 13.2783 33.715 13.166 33.7661C13.053 33.8174 12.8923 33.8976 12.709 34.0151C12.5238 34.1339 12.303 34.2986 12.0791 34.5226L17.7359 40.1795C17.4881 40.4272 17.2406 40.6128 17.0263 40.7502C16.814 40.8863 16.6221 40.9828 16.4764 41.049C16.3313 41.115 16.2081 41.1616 16.1307 41.1895C16.0576 41.216 15.9913 41.2379 15.9819 41.241C15.9556 41.2498 15.9862 41.2398 16.0244 41.226C16.0668 41.2107 16.1557 41.1775 16.2681 41.1264C16.381 41.0751 16.5417 40.9949 16.725 40.8774C16.9102 40.7587 17.131 40.5939 17.355 40.3699L11.6981 34.7131ZM12.4517 40.5084C10.8106 39.232 9.47891 37.189 9.47891 34.5891H17.4789C17.4789 34.5387 17.4723 34.4778 17.4556 34.4129C17.439 34.3487 17.4163 34.2943 17.3937 34.2522C17.3491 34.1696 17.3197 34.1597 17.3632 34.1936L12.4517 40.5084ZM9.47891 34.5891C9.47891 32.5065 10.3318 30.6508 11.6981 29.2845L17.355 34.9414C17.3601 34.9362 17.3959 34.8975 17.4293 34.8196C17.464 34.7385 17.4789 34.6549 17.4789 34.5891H9.47891ZM12.0277 28.9895C12.7788 28.3886 13.6652 27.8345 14.7854 27.4611L17.3152 35.0505C17.2892 35.0592 17.2677 35.0685 17.2373 35.0859C17.2026 35.1057 17.1363 35.1476 17.0253 35.2364L12.0277 28.9895ZM12.1726 32.2372L8.26784 16.8086L16.0233 14.8458L19.9281 30.2744L12.1726 32.2372ZM8.25603 16.7607L7.11317 11.9988L14.8923 10.1318L16.0351 14.8937L8.25603 16.7607ZM11.0027 15.0653H6.24082V7.06531H11.0027V15.0653ZM6.24082 15.0653C3.55549 15.0653 1.38367 12.8935 1.38367 10.2082H9.38367C9.38367 8.47522 7.97376 7.06531 6.24082 7.06531V15.0653ZM1.38367 10.2082C1.38367 8.81039 1.9841 7.49693 3.0499 6.5951C4.04915 5.74959 5.23017 5.44627 6.24082 5.44627V13.4463C6.77527 13.4463 7.52772 13.2858 8.21744 12.7022C8.97372 12.0623 9.38367 11.1298 9.38367 10.2082H1.38367ZM6.24082 5.44627H11.5741V13.4463H6.24082V5.44627ZM11.5741 5.44627C12.9858 5.44627 15.6022 6.2091 16.3119 9.04755L8.55072 10.9878C8.79 11.945 9.40251 12.6198 10.0135 12.9958C10.5772 13.3427 11.1351 13.4463 11.5741 13.4463V5.44627ZM16.325 9.10154L17.4678 13.9587L9.68048 15.791L8.53762 10.9338L16.325 9.10154ZM13.5741 10.8748H45.4789V18.8748H13.5741V10.8748ZM45.4789 10.8748C46.0885 10.8748 46.7753 10.9812 47.4725 11.291C48.1523 11.5932 48.6426 12.0007 48.974 12.3321L43.3172 17.989C43.458 18.1299 43.7579 18.3946 44.2234 18.6015C44.7063 18.8161 45.155 18.8748 45.4789 18.8748V10.8748ZM49.7233 13.3717C49.8713 13.6677 50.0717 14.1331 50.1869 14.7094C50.2858 15.2036 50.443 16.3671 49.8185 17.6161L42.6631 14.0384C42.1339 15.0968 42.2911 16.0223 42.3423 16.2783C42.4099 16.6165 42.5151 16.8439 42.5679 16.9494L49.7233 13.3717ZM50.1254 16.7813L46.1254 33.067L38.3563 31.1588L42.3563 14.8731L50.1254 16.7813ZM46.1214 33.0831C45.4118 35.9215 42.7953 36.6844 41.3837 36.6844V28.6844C40.9446 28.6844 40.3867 28.788 39.823 29.1349C39.212 29.5108 38.5995 30.1857 38.3602 31.1428L46.1214 33.0831ZM41.3837 36.6844H17.0027V28.6844H41.3837V36.6844ZM17.0027 36.6844C17.6208 36.6844 18.1526 36.4295 18.4978 36.0842L12.841 30.4274C13.9481 29.3202 15.4323 28.6844 17.0027 28.6844V36.6844ZM18.4978 36.0842C18.8431 35.739 19.098 35.2072 19.098 34.5891H11.098C11.098 33.0187 11.7338 31.5345 12.841 30.4274L18.4978 36.0842ZM19.098 34.5891C19.098 33.4276 18.1642 32.4939 17.0027 32.4939V40.4939C13.746 40.4939 11.098 37.8459 11.098 34.5891H19.098ZM17.0027 32.4939H41.6694V40.4939H17.0027V32.4939ZM44.4313 20.3986H13.9551V12.3986H44.4313V20.3986ZM17.8327 15.4167L21.547 30.0833L13.7918 32.0473L10.0775 17.3806L17.8327 15.4167ZM17.6694 27.0653H40.8122V35.0653H17.6694V27.0653ZM36.9287 30.107L40.5478 15.4404L48.3148 17.3569L44.6958 32.0236L36.9287 30.107ZM14.9075 40.0177C14.9075 41.1792 15.8412 42.1129 17.0027 42.1129V34.1129C20.2595 34.1129 22.9075 36.7609 22.9075 40.0177H14.9075ZM17.0027 42.1129C17.6208 42.1129 18.1526 41.858 18.4978 41.5128L12.841 35.8559C13.9481 34.7488 15.4323 34.1129 17.0027 34.1129V42.1129ZM18.4978 41.5128C18.8431 41.1675 19.098 40.6358 19.098 40.0177H11.098C11.098 38.4473 11.7338 36.9631 12.841 35.8559L18.4978 41.5128ZM19.098 40.0177C19.098 38.8562 18.1642 37.9225 17.0027 37.9225V45.9225C13.746 45.9225 11.098 43.2745 11.098 40.0177H19.098ZM17.0027 37.9225C16.7285 37.9225 15.8234 38.0345 15.1361 38.951L21.5361 43.751C20.2773 45.4294 18.4198 45.9225 17.0027 45.9225V37.9225ZM15.9361 38.151C15.0196 38.8384 14.9075 39.7434 14.9075 40.0177H22.9075C22.9075 41.4348 22.4144 43.2922 20.7361 44.551L15.9361 38.151ZM40.6027 38.151C39.6862 38.8384 39.5741 39.7434 39.5741 40.0177H47.5741C47.5741 41.4348 47.0811 43.2922 45.4027 44.551L40.6027 38.151ZM39.5741 40.0177C39.5741 41.1792 40.5079 42.1129 41.6694 42.1129V34.1129C44.9261 34.1129 47.5741 36.7609 47.5741 40.0177H39.5741ZM41.6694 42.1129C42.2874 42.1129 42.8192 41.858 43.1645 41.5128L37.5076 35.8559C38.6148 34.7488 40.099 34.1129 41.6694 34.1129V42.1129ZM43.1645 41.5128C43.5097 41.1675 43.7646 40.6358 43.7646 40.0177H35.7646C35.7646 38.4473 36.4005 36.9631 37.5076 35.8559L43.1645 41.5128ZM43.7646 40.0177C43.7646 38.8562 42.8309 37.9225 41.6694 37.9225V45.9225C38.4126 45.9225 35.7646 43.2745 35.7646 40.0177H43.7646ZM41.6694 37.9225C41.0513 37.9225 40.5195 38.1773 40.1743 38.5226L45.8311 44.1795C44.724 45.2866 43.2398 45.9225 41.6694 45.9225V37.9225Z" fill="#21CD9D" mask="url(#path-1-inside-1_149_17761)"/>
</svg>
