<svg width="282" height="117" viewBox="0 0 282 117" fill="none" xmlns="http://www.w3.org/2000/svg">
<path d="M77.4561 74.1093L93.7389 105.293H63.8814L56.3475 90.3457L77.4561 74.1093Z" fill="#E9BE64" stroke="#585857" stroke-width="2" stroke-miterlimit="10" stroke-linecap="round" stroke-linejoin="round"/>
<path d="M21.3516 36.3404C20.5878 37.9431 21.2475 39.8943 22.8792 40.6608L36.1415 47.0717C37.7386 47.8383 36.211 47.1763 36.9748 45.5387L37.8774 43.6572C38.6412 42.0545 41.4187 40.1033 39.8216 39.3368L26.5246 32.9607C24.9276 32.1941 22.9834 32.8561 22.2196 34.4937L21.3516 36.3404Z" fill="#E9BE64" stroke="#585857" stroke-width="2" stroke-miterlimit="10" stroke-linecap="round" stroke-linejoin="round"/>
<path d="M39.544 42.821C39.6828 42.5074 39.7176 42.159 39.5787 41.8454C39.4745 41.5319 39.2315 41.288 38.9538 41.1138L25.6914 34.7376C25.5179 34.6679 25.3443 34.5983 25.1707 34.5983C24.6846 34.5983 24.2333 34.877 24.025 35.33L23.1223 37.2114C22.9834 37.525 22.9487 37.8734 23.0529 38.187C23.157 38.5006 23.4 38.7445 23.6778 38.9187" stroke="white" stroke-width="1.75" stroke-miterlimit="10" stroke-linecap="round" stroke-linejoin="round"/>
<path d="M58.257 69.5449V70.2766C58.257 64.9806 62.5273 60.7299 67.7698 60.7299H72.9775V47.8383C72.9775 43.5527 73.6371 35.9222 80.6849 35.9222C81.3098 35.9222 81.2057 36.7236 81.2057 36.7236V43.6572V57.6289V69.5449V73.935C81.2057 85.5723 71.7971 95.0146 60.2012 95.0146C48.6054 95.0146 39.1968 85.5723 39.1968 73.935V69.5449H58.257Z" fill="#E9BE64" stroke="#585857" stroke-width="2" stroke-miterlimit="10" stroke-linecap="round" stroke-linejoin="round"/>
<path d="M29.9965 76.827C29.9965 78.7781 31.5935 80.3809 33.5377 80.3809H69.8181C71.7623 80.3809 73.3594 78.7781 73.3594 76.827V15.888C73.3594 13.9368 71.7623 12.3341 69.8181 12.3341H33.5377C31.5935 12.3341 29.9965 13.9368 29.9965 15.888V76.827Z" fill="#54A38D" stroke="#575756" stroke-width="1.75" stroke-miterlimit="10" stroke-linecap="round" stroke-linejoin="round"/>
<path d="M69.8181 78.4297C70.686 78.4297 71.3804 77.7328 71.3804 76.8618V15.888C71.3804 15.0169 70.686 14.3201 69.8181 14.3201H33.5377C32.6697 14.3201 31.9753 15.0169 31.9753 15.888" stroke="white" stroke-width="1.75" stroke-miterlimit="10" stroke-linecap="round" stroke-linejoin="round"/>
<path d="M67.4226 20.3827H34.6487V69.5798H67.4226V20.3827Z" fill="#F2CC38" stroke="#595A5B" stroke-width="1.75" stroke-miterlimit="10" stroke-linecap="round" stroke-linejoin="round"/>
<path d="M58.257 83.5167H75.7549V61.3571L67.1795 61.4616L61.6593 68.6391L58.257 71.4961V83.5167Z" fill="#E9BE64"/>
<path d="M58.257 82.2624V70.3115C58.257 65.0155 62.5273 60.7648 67.7697 60.7648H73.3246" fill="#E9BE64"/>
<path d="M58.257 82.2624V70.3115C58.257 65.0155 62.5273 60.7648 67.7697 60.7648H73.3246" stroke="#585857" stroke-width="2" stroke-miterlimit="10" stroke-linecap="round" stroke-linejoin="round"/>
<path d="M22.2196 72.5065C22.2196 74.2835 23.6778 75.7468 25.4484 75.7468H31.9754C33.746 75.7468 35.2042 74.2835 35.2042 72.5065V70.416C35.2042 68.639 33.746 67.1757 31.9754 67.1757H25.4484C23.6778 67.1757 22.2196 68.639 22.2196 70.416V72.5065Z" fill="#E9BE64" stroke="#585857" stroke-width="2" stroke-miterlimit="10" stroke-linecap="round" stroke-linejoin="round"/>
<path d="M19.0255 64.005C19.0255 65.782 20.4837 67.2454 22.2543 67.2454H32.0101C33.7807 67.2454 35.2389 65.782 35.2389 64.005V61.9145C35.2389 60.1376 33.7807 58.6742 32.0101 58.6742H22.2543C20.4837 58.6742 19.0255 60.1376 19.0255 61.9145V64.005Z" fill="#E9BE64" stroke="#585857" stroke-width="2" stroke-miterlimit="10" stroke-linecap="round" stroke-linejoin="round"/>
<path d="M20.6226 55.1552C20.6226 56.9321 22.0807 58.3955 23.8513 58.3955H31.9754C33.746 58.3955 35.2042 56.9321 35.2042 55.1552V53.0647C35.2042 51.2877 33.746 49.8243 31.9754 49.8243H23.8513C22.0807 49.8243 20.6226 51.2877 20.6226 53.0647V55.1552Z" fill="#E9BE64" stroke="#585857" stroke-width="2" stroke-miterlimit="10" stroke-linecap="round" stroke-linejoin="round"/>
<path d="M33.2252 55.1552V53.0646C33.2252 52.3678 32.6697 51.8103 31.9754 51.8103H23.8513" stroke="white" stroke-width="1.75" stroke-miterlimit="10" stroke-linecap="round" stroke-linejoin="round"/>
<path d="M33.2252 63.7263V61.6358C33.2252 60.9389 32.6697 60.3815 31.9754 60.3815H23.8513" stroke="white" stroke-width="1.75" stroke-miterlimit="10" stroke-linecap="round" stroke-linejoin="round"/>
<path d="M33.2253 72.3324V70.2419C33.2253 69.545 32.6698 68.9875 31.9754 68.9875H25.2401" stroke="white" stroke-width="1.75" stroke-miterlimit="10" stroke-linecap="round" stroke-linejoin="round"/>
<path d="M79.6086 37.6992V73.517C79.6086 73.517 78.3587 93.3422 60.2012 93.3422" stroke="white" stroke-width="1.75" stroke-miterlimit="10" stroke-linecap="round" stroke-linejoin="round"/>
<path d="M75.2342 62.5417H67.4573C67.4573 62.5417 60.236 62.8205 60.236 69.8586V81.8443" stroke="white" stroke-width="1.75" stroke-miterlimit="10" stroke-linecap="round" stroke-linejoin="round"/>
<path d="M51.0356 55.19C56.6536 55.19 61.208 50.6194 61.208 44.9812C61.208 39.3431 56.6536 34.7725 51.0356 34.7725C45.4175 34.7725 40.8632 39.3431 40.8632 44.9812C40.8632 50.6194 45.4175 55.19 51.0356 55.19Z" fill="#F2CC38"/>
<path d="M47.5986 44.4586L49.7858 47.5944C49.7858 47.5944 50.0983 48.0822 50.7232 48.1171H51.2092C51.244 48.1171 51.3134 48.1171 51.3481 48.1171C51.9036 48.0474 52.1466 47.6293 52.1814 47.6293L54.4033 44.5283C54.9241 43.7966 55.2018 42.9604 55.2365 42.0894C55.2365 40.9744 54.8199 39.8943 54.0214 39.0929C53.2229 38.2916 52.1814 37.8386 51.0704 37.8386C50.8968 37.8386 50.7232 37.8386 50.5496 37.8735C48.4318 38.1174 46.8348 39.8943 46.8 42.0197C46.8348 42.8907 47.0778 43.7269 47.5986 44.4586ZM49.1609 42.0197C49.1609 41.0789 49.89 40.2776 50.8273 40.173C50.8968 40.173 50.9662 40.173 51.0357 40.173C51.5217 40.173 52.0078 40.3821 52.3549 40.7305C52.7021 41.0789 52.9104 41.5667 52.8757 42.0545C52.8757 42.4378 52.7368 42.8211 52.5285 43.1346L51.0009 45.26L49.5081 43.0998C49.2998 42.7862 49.1609 42.4029 49.1609 42.0197Z" fill="#3D9F83"/>
<path d="M51.0356 48.8835C51.7647 48.8835 52.3202 49.4759 52.3202 50.1727C52.3202 50.8347 51.8341 51.3573 51.1745 51.427C51.105 51.427 51.0703 51.427 51.0009 51.427C50.2718 51.427 49.7163 50.8695 49.7163 50.1379C49.7163 49.441 50.2718 48.8487 51.0356 48.8835Z" fill="#3D9F83"/>
<path d="M90.2323 103.168L80.7543 85.5375" stroke="white" stroke-width="1.75" stroke-miterlimit="10" stroke-linecap="round" stroke-linejoin="round"/>
<path d="M99.0508 105.293H55.0977" stroke="#585857" stroke-width="2" stroke-miterlimit="10" stroke-linecap="round" stroke-linejoin="round"/>
<path d="M50.8967 78.36C52.7949 78.36 54.3338 76.8157 54.3338 74.9107C54.3338 73.0056 52.7949 71.4613 50.8967 71.4613C48.9984 71.4613 47.4596 73.0056 47.4596 74.9107C47.4596 76.8157 48.9984 78.36 50.8967 78.36Z" fill="#6FC1AC" stroke="#575756" stroke-width="2" stroke-miterlimit="10" stroke-linecap="round" stroke-linejoin="round"/>
<line x1="132" y1="50.5" x2="132" y2="66.5" stroke="#5A5B5C" stroke-width="4" stroke-linecap="round"/>
<line x1="124" y1="58.5" x2="140" y2="58.5" stroke="#5A5B5C" stroke-width="4" stroke-linecap="round"/>
<path d="M198.459 68.5067C198.354 70.7577 196.397 72.5238 194.125 72.4199L170.954 71.9005C168.682 71.7966 166.9 69.8573 167.004 67.6063L170.255 46.3086C170.36 44.0229 172.317 42.2914 174.588 42.3953L192.238 42.707C194.51 42.8109 196.292 44.7502 196.187 47.0012L198.459 68.5067Z" fill="#F3D348" stroke="#575756" stroke-width="2" stroke-miterlimit="10" stroke-linecap="round" stroke-linejoin="round"/>
<path d="M169.626 67.8487L172.177 48.2825C172.177 48.2825 172.107 44.9926 174.519 45.0619C176.965 45.1311 192.588 45.0965 192.588 45.0965" stroke="white" stroke-width="1.75" stroke-miterlimit="10" stroke-linecap="round" stroke-linejoin="round"/>
<path d="M212.439 92.8519C212.509 98.185 208.175 102.548 202.793 102.618C197.411 102.687 193.007 98.3928 192.937 93.0597C192.867 87.7266 197.201 83.3632 202.583 83.2939C207.965 83.2593 212.369 87.5188 212.439 92.8519Z" fill="#738087" stroke="#575756" stroke-width="2" stroke-miterlimit="10" stroke-linecap="round" stroke-linejoin="round"/>
<path d="M235.471 49.5984C235.506 51.5377 233.933 53.0961 231.976 53.1307C230.019 53.1654 228.446 51.607 228.411 49.7023C228.376 47.763 229.949 46.2046 231.871 46.17C233.863 46.1354 235.436 47.6591 235.471 49.5984Z" fill="#E6BC63" stroke="#595957" stroke-width="2" stroke-miterlimit="10" stroke-linecap="round" stroke-linejoin="round"/>
<path d="M209.538 32.5602C209.538 32.9065 209.503 33.2528 209.538 33.5645C209.678 44.4731 218.695 53.2 229.669 53.0614L229.564 44.9233C223.099 44.9925 217.821 39.8672 217.751 33.4606C217.751 33.1143 217.751 32.768 217.786 32.4563" fill="#BCE3F2"/>
<path d="M209.538 32.5602C209.538 32.9065 209.503 33.2528 209.538 33.5645C209.678 44.4731 218.695 53.2 229.669 53.0614L229.564 44.9233C223.099 44.9925 217.821 39.8672 217.751 33.4606C217.751 33.1143 217.751 32.768 217.786 32.4563" stroke="#5A5B5C" stroke-width="2" stroke-miterlimit="10" stroke-linecap="round" stroke-linejoin="round"/>
<path d="M214.92 56.4899C214.85 49.6677 216.353 43.4342 218.905 38.9323C216.388 34.4996 212.963 31.7291 209.119 31.7637C201.22 31.8676 194.964 43.0187 195.139 56.7323" fill="#BCE3F2"/>
<path d="M214.92 56.4899C214.85 49.6677 216.353 43.4342 218.905 38.9323C216.388 34.4996 212.963 31.7291 209.119 31.7637C201.22 31.8676 194.964 43.0187 195.139 56.7323" stroke="#5A5B5C" stroke-width="2" stroke-miterlimit="10" stroke-linecap="round" stroke-linejoin="round"/>
<path d="M232.57 56.767C231.172 56.767 229.984 55.6242 229.984 54.2389C229.984 53.5463 230.228 52.923 230.718 52.4035C231.207 51.9187 231.836 51.6416 232.535 51.6416L239.14 51.5724C240.573 51.5724 241.727 52.7152 241.762 54.1004C241.762 55.5203 240.643 56.6631 239.21 56.6977L232.57 56.767Z" fill="#E6B52B"/>
<path d="M239.175 52.4382C240.119 52.4382 240.888 53.2001 240.888 54.1005C240.888 55.0355 240.154 55.7973 239.21 55.832L232.605 55.9012C232.605 55.9012 232.605 55.9012 232.57 55.9012C231.626 55.9012 230.857 55.1394 230.857 54.239C230.857 53.304 231.591 52.5421 232.535 52.5074L239.175 52.4382C239.14 52.4382 239.175 52.4382 239.175 52.4382ZM239.175 50.7067H239.14L232.535 50.7759C231.626 50.7759 230.752 51.1569 230.088 51.8148C229.459 52.4728 229.11 53.3386 229.11 54.239C229.145 56.109 230.683 57.6328 232.57 57.6328H232.605L239.21 57.5635C241.133 57.5289 242.635 55.9705 242.635 54.1005C242.6 52.2304 241.063 50.7067 239.175 50.7067Z" fill="#5A5B5C"/>
<path d="M190.246 87.3111C190.141 87.3111 190.036 87.3111 189.966 87.2765L186.821 86.1683C186.576 86.099 186.402 85.9259 186.297 85.7181C186.192 85.5103 186.192 85.2679 186.297 85.0255L188.638 79.5539C188.778 79.2422 189.093 79.0344 189.442 79.0344C189.512 79.0344 189.617 79.0344 189.687 79.0691L193.042 80.108C193.287 80.1772 193.461 80.3504 193.566 80.5928C193.671 80.8352 193.671 81.0776 193.566 81.32L191.05 86.8609C190.91 87.138 190.595 87.3111 190.246 87.3111Z" fill="#D68245"/>
<path d="M189.442 79.8656L192.797 80.9045L190.281 86.4454L187.135 85.3372L189.442 79.8656ZM189.442 78.134C188.743 78.134 188.114 78.5496 187.834 79.2076L185.493 84.6792C185.318 85.1294 185.318 85.6142 185.493 86.0644C185.702 86.5146 186.052 86.8263 186.506 86.9994L189.652 88.1076C189.827 88.1769 190.036 88.2115 190.246 88.2115C190.91 88.2115 191.539 87.8306 191.854 87.2072L194.37 81.6663C194.58 81.2161 194.58 80.6967 194.37 80.2465C194.16 79.7963 193.776 79.45 193.287 79.3115L189.931 78.2726C189.792 78.1687 189.617 78.134 189.442 78.134Z" fill="#575756"/>
<path d="M251.128 54.3428C251.163 56.5245 249.381 58.3253 247.179 58.36C244.977 58.3946 243.16 56.6284 243.125 54.4467C243.09 52.265 244.872 50.4642 247.074 50.4296C249.276 50.4296 251.093 52.1611 251.128 54.3428Z" fill="#F2DB6E" stroke="#5A5B5C" stroke-width="2" stroke-miterlimit="10" stroke-linecap="round" stroke-linejoin="round"/>
<path d="M195.418 75.0865L216.074 74.8441L216.213 87.8652L189.547 88.1769L195.418 75.0865Z" fill="#E6B52B" stroke="#5A5B5C" stroke-width="2" stroke-miterlimit="10" stroke-linecap="round" stroke-linejoin="round"/>
<path d="M250.219 77.0258L245.641 58.6023L238.441 55.8319L240.259 76.2985L228.691 83.7787L211.95 83.9865C209.503 84.0211 207.581 85.9951 207.581 88.4192C207.616 90.8433 209.608 92.748 212.054 92.748L231.521 92.5402C233.968 92.5056 235.89 90.5317 235.89 88.1075C235.89 87.0686 235.506 86.1336 234.877 85.3717L243.23 78.1686L250.219 77.0258Z" fill="#E6B52B" stroke="#5A5B5C" stroke-width="2" stroke-miterlimit="10" stroke-linecap="round" stroke-linejoin="round"/>
<path d="M261.229 92.2979C261.298 97.6309 256.965 101.994 251.582 102.064C246.2 102.133 241.797 97.8387 241.727 92.5056C241.657 87.1725 245.991 82.8091 251.373 82.7398C256.755 82.7052 261.159 86.9648 261.229 92.2979Z" fill="#738087" stroke="#575756" stroke-width="2" stroke-miterlimit="10" stroke-linecap="round" stroke-linejoin="round"/>
<path d="M255.916 92.3671C255.951 94.7912 253.994 96.7998 251.513 96.7998C249.066 96.8344 247.039 94.8951 247.004 92.4363C246.969 90.0122 248.926 88.0036 251.408 88.0036C253.889 87.969 255.881 89.9429 255.916 92.3671Z" fill="white" stroke="#5A5B5C" stroke-width="2" stroke-miterlimit="10" stroke-linecap="round" stroke-linejoin="round"/>
<path d="M207.127 92.9212C207.162 95.3453 205.204 97.3539 202.723 97.3539C200.276 97.3885 198.249 95.4492 198.249 92.9904C198.214 90.5663 200.172 88.5577 202.653 88.5577C205.065 88.5577 207.092 90.497 207.127 92.9212Z" fill="white" stroke="#5A5B5C" stroke-width="2" stroke-miterlimit="10" stroke-linecap="round" stroke-linejoin="round"/>
<path d="M245.292 75.9869C239.49 78.2379 236.659 84.7138 238.931 90.4625L259.866 82.2897C257.629 76.541 251.093 73.7359 245.292 75.9869Z" fill="#E6B52B" stroke="#5A5B5C" stroke-width="2" stroke-miterlimit="10" stroke-linecap="round" stroke-linejoin="round"/>
<path d="M202.863 78.4803C194.859 78.6881 188.533 85.2679 188.743 93.1983L217.716 92.471C217.507 84.5407 210.866 78.3072 202.863 78.4803Z" fill="#E6B52B" stroke="#5A5B5C" stroke-width="2" stroke-miterlimit="10" stroke-linecap="round" stroke-linejoin="round"/>
<path d="M196.816 88.9394L205.204 88.8694" stroke="#5A5B5C" stroke-width="2" stroke-miterlimit="10" stroke-linecap="round" stroke-linejoin="round"/>
<path d="M222.609 71.6581C222.644 73.8398 220.862 75.6406 218.625 75.6752L196.292 75.9176C194.09 75.9523 192.273 74.1861 192.238 71.9698C192.203 69.788 193.986 67.9873 196.222 67.9526L218.555 67.7102C220.757 67.6756 222.574 69.4417 222.609 71.6581Z" fill="#B57942" stroke="#5A5B5C" stroke-width="2" stroke-miterlimit="10" stroke-linecap="round" stroke-linejoin="round"/>
<path d="M247.179 59.6412L237.707 58.0482L237.638 50.9836L247.039 49.1482L247.179 59.6412Z" fill="#E6B52B" stroke="#5A5B5C" stroke-width="2" stroke-miterlimit="10" stroke-linecap="round" stroke-linejoin="round"/>
<path d="M226.838 65.1476C227.327 60.1608 221.77 60.0915 221.246 60.1608L215.305 60.23C215.305 59.1219 215.095 58.0483 214.746 57.044L195.139 56.4553C194.615 57.702 194.37 59.0526 194.37 60.4725C194.44 66.1865 199.158 70.7577 204.925 70.6884C205.449 70.6884 207.197 70.6538 207.581 70.6538L216.458 70.5499L215.654 80.5928L225.021 82.0126L226.838 65.1476Z" fill="#8299A3" stroke="#575756" stroke-width="2" stroke-miterlimit="10" stroke-linecap="round" stroke-linejoin="round"/>
<path d="M217.332 60.1954L207.301 60.334" stroke="#5A5B5C" stroke-width="2" stroke-miterlimit="10" stroke-linecap="round" stroke-linejoin="round"/>
<path d="M222.365 77.4067C222.33 77.4067 222.33 77.4067 222.365 77.4067L219.639 77.4413L217.367 77.4759C216.493 77.4759 215.794 78.2032 215.794 79.0689L215.864 83.9865L219.708 83.9518V83.9172L222.4 83.8826L228.935 83.8133C228.9 80.2464 225.964 77.3721 222.365 77.4067Z" fill="white" stroke="#5A5B5C" stroke-width="2" stroke-miterlimit="10" stroke-linecap="round" stroke-linejoin="round"/>
<path d="M230.473 53.4424C230.508 55.3817 228.935 56.9401 227.013 56.9747C225.056 57.0094 223.483 55.451 223.448 53.5463C223.413 51.607 224.986 50.0486 226.908 50.014C228.865 49.9794 230.473 51.5031 230.473 53.4424Z" fill="#E6BC63" stroke="#595957" stroke-width="2" stroke-miterlimit="10" stroke-linecap="round" stroke-linejoin="round"/>
<path d="M204.505 40.8716C206.008 50.395 214.396 57.5981 224.392 57.4942L224.287 49.3561C218.73 49.4253 214.047 45.6506 212.788 40.5599" fill="#BCE3F2"/>
<path d="M204.505 40.8716C206.008 50.395 214.396 57.5981 224.392 57.4942L224.287 49.3561C218.73 49.4253 214.047 45.6506 212.788 40.5599" stroke="#5A5B5C" stroke-width="2" stroke-miterlimit="10" stroke-linecap="round" stroke-linejoin="round"/>
<path d="M217.052 37.7202C217.542 37.9626 218.101 38.1358 218.695 38.205C218.94 38.2397 219.219 38.2743 219.499 38.2743C221.736 38.2397 223.623 36.8891 224.427 34.9844C224.566 34.6035 224.706 34.2225 224.776 33.8416L225.58 31.9715L214.641 29.0626C214.047 28.9241 213.557 28.6124 213.138 28.2314L206.078 34.4303L217.052 37.7202Z" fill="#E3B245"/>
<path d="M219.044 22.933L227.258 25.1148C227.362 22.4482 226.419 19.8509 224.706 17.9116L219.044 22.933Z" fill="#E3B245"/>
<path d="M219.534 14.7256C213.977 13.2711 208.315 16.561 206.847 22.0673L203.177 33.5646L206.078 34.4304L213.138 28.1622C212.229 27.2965 211.775 26.0151 212.124 24.7338C212.614 22.8638 214.571 21.7556 216.458 22.2751L219.009 22.9677L224.671 17.9462C223.378 16.4225 221.631 15.2797 219.534 14.7256Z" fill="#E8C163"/>
<path d="M212.159 24.7339C212.649 22.8638 214.606 21.7556 216.493 22.2751L227.292 25.1494C227.502 20.405 224.357 16.007 219.569 14.7603C214.012 13.3058 208.35 16.5957 206.882 22.1019L203.212 33.5993L217.087 37.7549C217.576 37.9973 218.136 38.1705 218.73 38.2397C218.974 38.2744 219.254 38.309 219.534 38.309C221.77 38.2744 223.658 36.9238 224.462 35.0191C224.601 34.6382 224.741 34.2572 224.811 33.8763L225.615 32.0063L214.676 29.0973C212.753 28.5086 211.635 26.6039 212.159 24.7339Z" stroke="#5A5B5C" stroke-width="2" stroke-miterlimit="10" stroke-linecap="round" stroke-linejoin="round"/>
<path d="M227.258 25.1148L216.458 22.2405C214.571 21.7557 212.649 22.8639 212.124 24.6993C211.635 26.5693 212.718 28.474 214.606 28.9935L225.545 31.9024L226.908 27.2966C227.118 26.5693 227.223 25.8421 227.258 25.1148Z" fill="#6DACDF" stroke="#575756" stroke-width="2" stroke-miterlimit="10" stroke-linecap="round" stroke-linejoin="round"/>
<path d="M205.414 31.1059L208.804 21.721C208.804 21.721 211.705 14.6564 219.289 16.1109" stroke="white" stroke-width="1.75" stroke-miterlimit="10" stroke-linecap="round" stroke-linejoin="round"/>
<path d="M190.735 91.0165C190.735 91.0165 191.679 80.9737 203.072 80.1426" stroke="white" stroke-width="1.75" stroke-miterlimit="10" stroke-linecap="round" stroke-linejoin="round"/>
<path d="M240.084 88.1423C240.084 88.1423 239.036 79.9695 246.829 77.1298" stroke="white" stroke-width="1.75" stroke-miterlimit="10" stroke-linecap="round" stroke-linejoin="round"/>
<path d="M240.573 60.0569L242.041 74.7402" stroke="white" stroke-width="1.75" stroke-miterlimit="10" stroke-linecap="round" stroke-linejoin="round"/>
<path d="M239.63 56.6977L239.56 52.4035L245.396 51.1222" stroke="white" stroke-width="1.75" stroke-miterlimit="10" stroke-linecap="round" stroke-linejoin="round"/>
<path d="M206.288 40.3868C206.288 40.3868 209.293 53.7888 222.015 55.278" stroke="white" stroke-width="1.75" stroke-miterlimit="10" stroke-linecap="round" stroke-linejoin="round"/>
<path d="M204.331 35.9541C204.331 35.9541 198.354 41.2179 197.655 52.1265" stroke="white" stroke-width="1.75" stroke-miterlimit="10" stroke-linecap="round" stroke-linejoin="round"/>
<path d="M184.654 55.9359L184.514 56.109L182.732 58.5678L180.949 56.109L180.81 55.9359C180.53 55.5203 180.355 55.0701 180.355 54.5853C180.355 53.304 181.404 52.2651 182.697 52.2651C183.99 52.2651 185.038 53.304 185.038 54.5853C185.073 55.0701 184.934 55.555 184.654 55.9359ZM182.732 50.0487C180.18 50.0487 178.118 52.0919 178.118 54.6199C178.118 55.5896 178.433 56.49 178.992 57.2865L179.132 57.4596L181.543 60.8188C181.543 60.8188 181.823 61.3036 182.487 61.3036H182.662H182.907H183.046C183.675 61.3036 183.99 60.8188 183.99 60.8188L186.401 57.4596L186.506 57.2865C187.066 56.49 187.38 55.5896 187.38 54.6199C187.345 52.0919 185.283 50.0487 182.732 50.0487Z" fill="#00A082"/>
<path d="M181.439 63.3121C181.439 62.6195 181.998 62.0654 182.732 62.0654C183.466 62.0654 184.025 62.6195 184.025 63.3121C184.025 64.0047 183.466 64.5588 182.732 64.5588C181.998 64.5242 181.439 63.9701 181.439 63.3121Z" fill="#00A082"/>
</svg>
