<svg width="72" height="80" viewBox="0 0 72 80" fill="none" xmlns="http://www.w3.org/2000/svg">
<rect x="0.800415" width="71" height="80" stroke="#21CD9D"/>
<path d="M42.2171 66.6667V75M30.3837 66.6667V75M42.2171 13.3333V5M30.3837 13.3333V5M21.5087 40H14.1129M58.4879 40H51.0921M21.5087 21.6667H14.1129M58.4879 21.6667H51.0921M21.5087 58.3333H14.1129M58.4879 58.3333H51.0921M21.5087 64.6667V15.3333C21.5087 14.8029 21.6958 14.2942 22.0286 13.9191C22.3615 13.544 22.813 13.3333 23.2837 13.3333H49.3171C49.5502 13.3333 49.781 13.3851 49.9963 13.4856C50.2117 13.5861 50.4074 13.7334 50.5722 13.9191C50.737 14.1048 50.8678 14.3253 50.957 14.568C51.0462 14.8106 51.0921 15.0707 51.0921 15.3333V64.6667C51.0921 64.9293 51.0462 65.1894 50.957 65.432C50.8678 65.6747 50.737 65.8952 50.5722 66.0809C50.4074 66.2666 50.2117 66.4139 49.9963 66.5144C49.781 66.6149 49.5502 66.6667 49.3171 66.6667H23.2837C22.813 66.6667 22.3615 66.456 22.0286 66.0809C21.6958 65.7058 21.5087 65.1971 21.5087 64.6667Z" stroke="#21CD9D" stroke-width="2.75" stroke-linecap="round" stroke-linejoin="round"/>
</svg>
