<svg width="89" height="89" viewBox="0 0 89 89" fill="none" xmlns="http://www.w3.org/2000/svg">
<rect x="8.80042" y="9" width="71" height="80" stroke="#1B212C"/>
<path d="M50.2171 75.6667V84M38.3837 75.6667V84M50.2171 22.3333V14M38.3837 22.3333V14M29.5087 49H22.1129M66.4879 49H59.0921M29.5087 30.6667H22.1129M66.4879 30.6667H59.0921M29.5087 67.3333H22.1129M66.4879 67.3333H59.0921M29.5087 73.6667V24.3333C29.5087 23.8029 29.6958 23.2942 30.0286 22.9191C30.3615 22.544 30.813 22.3333 31.2837 22.3333H57.3171C57.5502 22.3333 57.781 22.3851 57.9963 22.4856C58.2117 22.5861 58.4074 22.7334 58.5722 22.9191C58.737 23.1048 58.8678 23.3253 58.957 23.568C59.0462 23.8106 59.0921 24.0707 59.0921 24.3333V73.6667C59.0921 73.9293 59.0462 74.1894 58.957 74.432C58.8678 74.6747 58.737 74.8952 58.5722 75.0809C58.4074 75.2666 58.2117 75.4139 57.9963 75.5144C57.781 75.6149 57.5502 75.6667 57.3171 75.6667H31.2837C30.813 75.6667 30.3615 75.456 30.0286 75.0809C29.6958 74.7058 29.5087 74.1971 29.5087 73.6667Z" stroke="#5B0F00" stroke-width="2.75" stroke-linecap="round" stroke-linejoin="round"/>
</svg>
