<svg width="49" height="37" viewBox="0 0 49 37" fill="none" xmlns="http://www.w3.org/2000/svg">
<mask id="path-1-inside-1_149_17769" fill="white">
<path d="M14.5644 14.4938L9.04062 23.0653H8.94538C8.94538 23.1605 8.85014 23.2557 8.7549 23.351H8.56443C8.56443 23.4462 8.46919 23.4462 8.37395 23.4462H8.27871H8.18348H7.80252L7.70728 23.351C7.61205 23.2557 7.51681 23.2557 7.42157 23.1605L0.754904 15.4462C0.373952 15.0653 0.46919 14.3986 0.850142 14.0176C1.23109 13.6367 1.89776 13.7319 2.27871 14.1129L6.7549 19.2557C6.56443 15.6367 7.51681 12.0176 9.42157 8.87478C11.993 4.6843 15.993 1.82716 20.7549 0.684303C27.3263 -0.839508 34.1835 1.35097 38.6597 6.39859C39.0406 6.77954 39.0406 7.44621 38.5644 7.82716C38.1835 8.20811 37.5168 8.11287 37.1359 7.73192C33.1359 3.25573 27.0406 1.25573 21.2311 2.6843C17.0406 3.63668 13.4216 6.30335 11.1359 9.9224C9.32633 12.8748 8.56443 16.3034 8.7549 19.6367L12.8501 13.351C13.1359 12.8748 13.8025 12.7795 14.1835 13.0653C14.6597 13.351 14.8501 14.0176 14.5644 14.4938ZM48.6597 24.3986C48.9454 24.8748 48.8501 25.5414 48.374 25.8272C48.1835 25.9224 47.993 26.0176 47.8025 26.0176C47.5168 26.0176 47.1359 25.8272 46.9454 25.5414L43.2311 19.9224C42.5644 27.7319 37.0406 34.3986 29.2311 36.3034C27.8025 36.5891 26.374 36.7795 24.9454 36.7795C20.1835 36.7795 15.612 34.97 12.0882 31.5414C11.7073 31.0653 11.7073 30.4938 12.0882 30.1129C12.4692 29.6367 13.1359 29.6367 13.5168 30.0176C17.612 34.0176 23.2311 35.6367 28.7549 34.3034C35.8978 32.5891 40.8501 26.3986 41.2311 19.2557L36.374 24.97C36.0882 25.4462 35.4216 25.4462 34.9454 25.1605C34.5644 24.7795 34.4692 24.1129 34.8501 23.7319L41.3263 15.9224L41.612 15.6367C41.8025 15.6367 41.8978 15.5414 41.993 15.5414H42.1835H42.2787C42.374 15.5414 42.4692 15.6367 42.5644 15.6367C42.5644 15.6367 42.6597 15.6367 42.6597 15.7319C42.7549 15.7319 42.8501 15.8272 42.9454 15.9224V16.0176L48.6597 24.3986Z"/>
</mask>
<path d="M14.5644 14.4938L9.04062 23.0653H8.94538C8.94538 23.1605 8.85014 23.2557 8.7549 23.351H8.56443C8.56443 23.4462 8.46919 23.4462 8.37395 23.4462H8.27871H8.18348H7.80252L7.70728 23.351C7.61205 23.2557 7.51681 23.2557 7.42157 23.1605L0.754904 15.4462C0.373952 15.0653 0.46919 14.3986 0.850142 14.0176C1.23109 13.6367 1.89776 13.7319 2.27871 14.1129L6.7549 19.2557C6.56443 15.6367 7.51681 12.0176 9.42157 8.87478C11.993 4.6843 15.993 1.82716 20.7549 0.684303C27.3263 -0.839508 34.1835 1.35097 38.6597 6.39859C39.0406 6.77954 39.0406 7.44621 38.5644 7.82716C38.1835 8.20811 37.5168 8.11287 37.1359 7.73192C33.1359 3.25573 27.0406 1.25573 21.2311 2.6843C17.0406 3.63668 13.4216 6.30335 11.1359 9.9224C9.32633 12.8748 8.56443 16.3034 8.7549 19.6367L12.8501 13.351C13.1359 12.8748 13.8025 12.7795 14.1835 13.0653C14.6597 13.351 14.8501 14.0176 14.5644 14.4938ZM48.6597 24.3986C48.9454 24.8748 48.8501 25.5414 48.374 25.8272C48.1835 25.9224 47.993 26.0176 47.8025 26.0176C47.5168 26.0176 47.1359 25.8272 46.9454 25.5414L43.2311 19.9224C42.5644 27.7319 37.0406 34.3986 29.2311 36.3034C27.8025 36.5891 26.374 36.7795 24.9454 36.7795C20.1835 36.7795 15.612 34.97 12.0882 31.5414C11.7073 31.0653 11.7073 30.4938 12.0882 30.1129C12.4692 29.6367 13.1359 29.6367 13.5168 30.0176C17.612 34.0176 23.2311 35.6367 28.7549 34.3034C35.8978 32.5891 40.8501 26.3986 41.2311 19.2557L36.374 24.97C36.0882 25.4462 35.4216 25.4462 34.9454 25.1605C34.5644 24.7795 34.4692 24.1129 34.8501 23.7319L41.3263 15.9224L41.612 15.6367C41.8025 15.6367 41.8978 15.5414 41.993 15.5414H42.1835H42.2787C42.374 15.5414 42.4692 15.6367 42.5644 15.6367C42.5644 15.6367 42.6597 15.6367 42.6597 15.7319C42.7549 15.7319 42.8501 15.8272 42.9454 15.9224V16.0176L48.6597 24.3986Z" fill="#5B0F00"/>
<path d="M14.5644 14.4938L17.9944 16.5518L17.9614 16.6068L17.9267 16.6606L14.5644 14.4938ZM9.04062 23.0653L12.4029 25.2321L11.2215 27.0653H9.04062V23.0653ZM8.94538 23.0653H4.94538V19.0653H8.94538V23.0653ZM8.7549 23.351L11.5833 26.1794L10.4118 27.351H8.7549V23.351ZM8.56443 23.351H4.56443V19.351H8.56443V23.351ZM7.80252 23.4462V27.4462H6.14567L4.9741 26.2746L7.80252 23.4462ZM7.42157 23.1605L4.59314 25.9889L4.49026 25.886L4.39512 25.7759L7.42157 23.1605ZM0.754904 15.4462L3.58333 12.6178L3.68622 12.7207L3.78136 12.8308L0.754904 15.4462ZM2.27871 14.1129L5.10714 11.2844L5.20504 11.3823L5.29593 11.4868L2.27871 14.1129ZM6.7549 19.2557L10.7494 19.0455L11.3596 30.6389L3.73768 21.8818L6.7549 19.2557ZM9.42157 8.87478L6.00078 6.80157L6.0065 6.79213L6.01228 6.78271L9.42157 8.87478ZM20.7549 0.684303L19.8214 -3.20525L19.8364 -3.20884L19.8513 -3.21231L20.7549 0.684303ZM38.6597 6.39859L35.8312 9.22701L35.7465 9.14224L35.6669 9.05254L38.6597 6.39859ZM38.5644 7.82716L35.736 4.99873L35.8927 4.84208L36.0656 4.70369L38.5644 7.82716ZM37.1359 7.73192L34.3074 10.5603L34.228 10.481L34.1532 10.3972L37.1359 7.73192ZM21.2311 2.6843L22.1862 6.56859L22.152 6.57701L22.1176 6.58483L21.2311 2.6843ZM11.1359 9.9224L7.72545 7.83215L7.73952 7.80919L7.7539 7.78643L11.1359 9.9224ZM8.7549 19.6367L12.1064 21.8202L5.4564 32.0271L4.76142 19.8649L8.7549 19.6367ZM12.8501 13.351L16.2801 15.409L16.242 15.4724L16.2016 15.5345L12.8501 13.351ZM14.1835 13.0653L12.1255 16.4952L11.9486 16.3891L11.7835 16.2653L14.1835 13.0653ZM48.6597 24.3986L51.9646 22.1452L52.0299 22.2411L52.0896 22.3406L48.6597 24.3986ZM48.374 25.8272L50.4319 29.2571L50.3002 29.3362L50.1628 29.4049L48.374 25.8272ZM46.9454 25.5414L43.6172 27.7602L43.6128 27.7537L43.6085 27.7472L46.9454 25.5414ZM43.2311 19.9224L39.2456 19.5822L40.2241 8.11954L46.568 17.7167L43.2311 19.9224ZM29.2311 36.3034L30.1789 40.1894L30.0976 40.2093L30.0156 40.2257L29.2311 36.3034ZM12.0882 31.5414L9.29882 34.4083L9.12033 34.2347L8.96476 34.0402L12.0882 31.5414ZM12.0882 30.1129L15.2117 32.6117L15.0733 32.7846L14.9167 32.9413L12.0882 30.1129ZM13.5168 30.0176L10.7219 32.8791L10.705 32.8627L10.6884 32.8461L13.5168 30.0176ZM28.7549 34.3034L27.8163 30.415L27.8214 30.4138L28.7549 34.3034ZM41.2311 19.2557L38.1833 16.6651L45.8564 7.63802L45.2254 19.4688L41.2311 19.2557ZM36.374 24.97L32.944 22.912L33.1132 22.63L33.3262 22.3794L36.374 24.97ZM34.9454 25.1605L32.8874 28.5905L32.4651 28.3371L32.117 27.9889L34.9454 25.1605ZM34.8501 23.7319L37.9292 26.2853L37.8103 26.4286L37.6786 26.5603L34.8501 23.7319ZM41.3263 15.9224L38.2473 13.3691L38.3662 13.2257L38.4979 13.094L41.3263 15.9224ZM41.612 15.6367L38.7836 12.8083L39.9552 11.6367H41.612V15.6367ZM42.6597 15.7319V19.7319H38.6597V15.7319H42.6597ZM42.9454 15.9224L45.7738 13.094L46.9454 14.2655V15.9224H42.9454ZM42.9454 16.0176L39.6405 18.271L38.9454 17.2515V16.0176H42.9454ZM17.9267 16.6606L12.4029 25.2321L5.67833 20.8984L11.2021 12.327L17.9267 16.6606ZM9.04062 27.0653H8.94538V19.0653H9.04062V27.0653ZM12.9454 23.0653C12.9454 24.4181 12.2939 25.3307 12.0859 25.6081C11.947 25.7932 11.8185 25.9347 11.743 26.0153C11.6689 26.0944 11.5985 26.1643 11.5833 26.1794L5.92648 20.5225C6.02638 20.4226 5.85403 20.5839 5.68586 20.8081C5.54923 20.9903 4.94538 21.8077 4.94538 23.0653H12.9454ZM8.7549 27.351H8.56443V19.351H8.7549V27.351ZM12.5644 23.351C12.5644 24.0665 12.3721 25.0046 11.7055 25.8618C11.0657 26.6844 10.277 27.06 9.76982 27.229C9.28604 27.3903 8.87944 27.4246 8.70997 27.4359C8.60823 27.4426 8.52425 27.4447 8.47296 27.4455C8.42409 27.4463 8.38019 27.4462 8.37395 27.4462V19.4462C8.4262 19.4462 8.31253 19.4446 8.17782 19.4536C8.05299 19.4619 7.68806 19.4902 7.23999 19.6396C6.76848 19.7967 6.00959 20.1545 5.39065 20.9503C4.74481 21.7806 4.56443 22.6831 4.56443 23.351H12.5644ZM8.37395 27.4462H8.27871V19.4462H8.37395V27.4462ZM8.27871 27.4462H8.18348V19.4462H8.27871V27.4462ZM8.18348 27.4462H7.80252V19.4462H8.18348V27.4462ZM4.9741 26.2746L4.87886 26.1794L10.5357 20.5225L10.6309 20.6178L4.9741 26.2746ZM4.87886 26.1794C4.98618 26.2867 5.09698 26.3839 5.20899 26.4714C5.32058 26.5586 5.42502 26.6296 5.51586 26.6864C5.60506 26.7422 5.6788 26.7827 5.72352 26.8064C5.76235 26.8271 5.79442 26.8429 5.77557 26.8334C5.77061 26.831 5.71473 26.8032 5.65209 26.77C5.58356 26.7336 5.48601 26.6797 5.373 26.609C5.25835 26.5374 5.13011 26.45 4.99471 26.3442C4.85889 26.2381 4.72427 26.12 4.59314 25.9889L10.25 20.3321C10.1427 20.2247 10.0319 20.1275 9.91986 20.04C9.80827 19.9528 9.70384 19.8818 9.613 19.825C9.5238 19.7693 9.45006 19.7288 9.40533 19.705C9.36651 19.6844 9.33444 19.6686 9.35328 19.678C9.35825 19.6805 9.41413 19.7082 9.47676 19.7415C9.5453 19.7779 9.64285 19.8318 9.75585 19.9024C9.8705 19.9741 9.99875 20.0615 10.1341 20.1672C10.27 20.2734 10.4046 20.3914 10.5357 20.5225L4.87886 26.1794ZM4.39512 25.7759L-2.27155 18.0617L3.78136 12.8308L10.448 20.545L4.39512 25.7759ZM-2.07352 18.2746C-3.26407 17.0841 -3.57563 15.5673 -3.46676 14.3698C-3.36034 13.1991 -2.84669 12.0576 -1.97828 11.1892L3.67857 16.8461C4.16602 16.3586 4.44158 15.7409 4.50038 15.0941C4.56163 14.4203 4.39293 13.4274 3.58333 12.6178L-2.07352 18.2746ZM-1.97828 11.1892C-0.787739 9.99866 0.729041 9.6871 1.92657 9.79597C3.09723 9.90239 4.23874 10.416 5.10714 11.2844L-0.549713 16.9413C-0.0622626 17.4288 0.555439 17.7043 1.20229 17.7631C1.87601 17.8244 2.86898 17.6557 3.67857 16.8461L-1.97828 11.1892ZM5.29593 11.4868L9.77212 16.6296L3.73768 21.8818L-0.738505 16.739L5.29593 11.4868ZM2.76043 19.466C2.52579 15.0078 3.7 10.5979 6.00078 6.80157L12.8424 10.948C11.3336 13.4374 10.6031 16.2655 10.7494 19.0455L2.76043 19.466ZM6.01228 6.78271C9.14908 1.6709 14.0491 -1.81989 19.8214 -3.20525L21.6884 4.57385C17.9369 5.47421 14.8369 7.69771 12.8309 10.9668L6.01228 6.78271ZM19.8513 -3.21231C27.8528 -5.06771 36.2045 -2.39877 41.6524 3.74464L35.6669 9.05254C32.1625 5.1007 26.7999 3.3887 21.6585 4.58091L19.8513 -3.21231ZM41.4881 3.57016C43.4986 5.58063 43.4626 9.03112 41.0632 10.9506L36.0656 4.70369C34.6186 5.8613 34.5827 7.97845 35.8312 9.22701L41.4881 3.57016ZM41.3929 10.6556C40.2023 11.8461 38.6855 12.1577 37.488 12.0488C36.3173 11.9424 35.1758 11.4288 34.3074 10.5603L39.9643 4.90349C39.4768 4.41604 38.8591 4.14049 38.2123 4.08168C37.5386 4.02044 36.5456 4.18914 35.736 4.99873L41.3929 10.6556ZM34.1532 10.3972C31.0983 6.97858 26.4999 5.50785 22.1862 6.56859L20.2759 -1.19999C27.5813 -2.99639 35.1735 -0.467113 40.1185 5.0666L34.1532 10.3972ZM22.1176 6.58483C19.0153 7.28989 16.2693 9.28522 14.5178 12.0584L7.7539 7.78643C10.5739 3.32148 15.0659 -0.0165215 20.3446 -1.21623L22.1176 6.58483ZM14.5463 12.0126C13.1963 14.2152 12.6006 16.823 12.7484 19.4085L4.76142 19.8649C4.52821 15.7837 5.45634 11.5344 7.72545 7.83215L14.5463 12.0126ZM5.40345 17.4532L9.49869 11.1674L16.2016 15.5345L12.1064 21.8202L5.40345 17.4532ZM9.42017 11.293C10.23 9.94331 11.5266 9.22277 12.7326 8.99304C13.8943 8.77177 15.3463 8.93739 16.5835 9.86526L11.7835 16.2653C12.6397 16.9074 13.5679 16.9778 14.2295 16.8518C14.9356 16.7173 15.756 16.2824 16.2801 15.409L9.42017 11.293ZM16.2415 9.63528C18.4729 10.9742 19.4984 14.0452 17.9944 16.5518L11.1345 12.4358C10.6399 13.2601 10.6267 14.1229 10.8006 14.7606C10.9729 15.3922 11.3928 16.0556 12.1255 16.4952L16.2415 9.63528ZM52.0896 22.3406C53.2512 24.2765 53.2096 27.5905 50.4319 29.2571L46.316 22.3972C45.4226 22.9332 44.9933 23.7744 44.867 24.4688C44.7454 25.1376 44.8604 25.841 45.2297 26.4566L52.0896 22.3406ZM50.1628 29.4049C50.1055 29.4335 49.8195 29.5809 49.4927 29.7034C49.149 29.8323 48.553 30.0176 47.8025 30.0176V22.0176C47.2425 22.0176 46.837 22.1553 46.6837 22.2128C46.5474 22.2639 46.4519 22.316 46.5851 22.2495L50.1628 29.4049ZM47.8025 30.0176C46.8482 30.0176 46.0318 29.7263 45.4418 29.4086C44.8335 29.081 44.1462 28.5538 43.6172 27.7602L50.2736 23.3226C49.935 22.8148 49.5334 22.5257 49.2346 22.3648C48.9542 22.2138 48.4711 22.0176 47.8025 22.0176V30.0176ZM43.6085 27.7472L39.8942 22.1281L46.568 17.7167L50.2823 23.3357L43.6085 27.7472ZM47.2166 20.2626C46.4069 29.7473 39.6926 37.869 30.1789 40.1894L28.2833 32.4173C34.3886 30.9282 38.7219 25.7165 39.2456 19.5822L47.2166 20.2626ZM30.0156 40.2257C28.4284 40.5431 26.7226 40.7795 24.9454 40.7795V32.7795C26.0253 32.7795 27.1766 32.635 28.4466 32.381L30.0156 40.2257ZM24.9454 40.7795C19.1507 40.7795 13.5759 38.5698 9.29882 34.4083L14.8777 28.6745C17.6482 31.3702 21.2162 32.7795 24.9454 32.7795V40.7795ZM8.96476 34.0402C7.56547 32.2911 7.1664 29.3779 9.25981 27.2844L14.9167 32.9413C15.4716 32.3864 15.8025 31.6091 15.8025 30.7914C15.8025 30.0091 15.5059 29.4105 15.2117 29.0427L8.96476 34.0402ZM8.96476 27.6141C10.8843 25.2147 14.3348 25.1787 16.3452 27.1892L10.6884 32.8461C11.9369 34.0946 14.0541 34.0587 15.2117 32.6117L8.96476 27.6141ZM16.3118 27.1561C19.455 30.2263 23.6749 31.4147 27.8163 30.415L29.6935 38.1917C22.7873 39.8587 15.7691 37.809 10.7219 32.8791L16.3118 27.1561ZM27.8214 30.4138C33.1973 29.1236 36.9476 24.465 37.2368 19.0427L45.2254 19.4688C44.7527 28.3322 38.5982 36.0545 29.6884 38.1929L27.8214 30.4138ZM44.2789 21.8463L39.4217 27.5606L33.3262 22.3794L38.1833 16.6651L44.2789 21.8463ZM39.8039 27.028C38.874 28.5779 37.3512 29.2202 36.0932 29.3345C34.9052 29.4425 33.7799 29.126 32.8874 28.5905L37.0034 21.7305C36.587 21.4807 36.0332 21.307 35.3689 21.3674C34.6348 21.4341 33.5882 21.8383 32.944 22.912L39.8039 27.028ZM32.117 27.9889C31.2486 27.1205 30.7349 25.979 30.6285 24.8084C30.5196 23.6108 30.8312 22.094 32.0217 20.9035L37.6786 26.5603C38.4882 25.7508 38.6569 24.7578 38.5956 24.0841C38.5368 23.4372 38.2613 22.8195 37.7738 22.3321L32.117 27.9889ZM31.7711 21.1786L38.2473 13.3691L44.4054 18.4757L37.9292 26.2853L31.7711 21.1786ZM38.4979 13.094L38.7836 12.8083L44.4405 18.4651L44.1548 18.7508L38.4979 13.094ZM41.612 11.6367C41.3164 11.6367 41.0442 11.6748 40.805 11.7323C40.5758 11.7873 40.4076 11.8532 40.3527 11.8752C40.3396 11.8804 40.331 11.884 40.3328 11.8832C40.3343 11.8826 40.3346 11.8825 40.3402 11.8801C40.3444 11.8784 40.3518 11.8753 40.3604 11.8718C40.3873 11.8608 40.4769 11.8239 40.5888 11.7844C40.7039 11.7438 40.8865 11.6844 41.1149 11.6352C41.3481 11.585 41.6462 11.5414 41.993 11.5414V19.5414C42.316 19.5414 42.5903 19.5009 42.7993 19.4559C43.0035 19.4119 43.1616 19.36 43.2514 19.3283C43.2982 19.3118 43.3354 19.2975 43.3589 19.2883C43.382 19.2793 43.3984 19.2725 43.4013 19.2713C43.403 19.2706 43.4036 19.2704 43.4009 19.2715C43.3995 19.2721 43.3929 19.2748 43.3873 19.2771C43.3749 19.2823 43.3517 19.2918 43.3238 19.303C43.2093 19.3488 42.9757 19.4385 42.672 19.5114C42.3584 19.5866 42.0029 19.6367 41.612 19.6367V11.6367ZM41.993 11.5414H42.1835V19.5414H41.993V11.5414ZM42.1835 11.5414H42.2787V19.5414H42.1835V11.5414ZM42.2787 11.5414C42.6242 11.5414 42.9255 11.5846 43.1692 11.6379C43.4106 11.6907 43.6097 11.7567 43.7546 11.811C43.8989 11.8651 44.014 11.9171 44.0836 11.9497C44.1491 11.9805 44.2065 12.0094 44.2104 12.0114C44.2303 12.0213 44.1967 12.0043 44.155 11.9847C44.1093 11.9633 44.018 11.9217 43.8975 11.8765C43.7764 11.8311 43.6011 11.7726 43.3835 11.725C43.1636 11.6769 42.8861 11.6367 42.5644 11.6367V19.6367C42.2189 19.6367 41.9176 19.5935 41.6739 19.5402C41.4325 19.4874 41.2334 19.4215 41.0885 19.3671C40.9442 19.313 40.8291 19.261 40.7595 19.2284C40.694 19.1977 40.6367 19.1687 40.6327 19.1668C40.6128 19.1568 40.6464 19.1739 40.6881 19.1934C40.7339 19.2149 40.8251 19.2565 40.9456 19.3016C41.0667 19.3471 41.242 19.4055 41.4596 19.4531C41.6795 19.5012 41.957 19.5414 42.2787 19.5414V11.5414ZM42.5644 15.6367C42.5644 11.6367 42.5664 11.6367 42.5683 11.6367C42.569 11.6367 42.571 11.6367 42.5723 11.6367C42.5749 11.6367 42.5775 11.6367 42.5802 11.6367C42.5855 11.6367 42.5908 11.6368 42.5962 11.6368C42.607 11.6369 42.618 11.637 42.6292 11.6372C42.6516 11.6376 42.6748 11.6381 42.6988 11.6389C42.7466 11.6405 42.7984 11.6431 42.8535 11.647C42.9625 11.6548 43.092 11.6684 43.2369 11.6926C43.5078 11.7377 43.9301 11.8355 44.4009 12.0709C44.8873 12.3141 45.4954 12.7417 45.973 13.4581C46.4672 14.1994 46.6597 15.0082 46.6597 15.7319H38.6597C38.6597 16.4081 38.8402 17.1811 39.3166 17.8957C39.7763 18.5852 40.3606 18.995 40.8232 19.2263C41.2701 19.4498 41.6687 19.5416 41.9217 19.5837C42.0577 19.6064 42.1798 19.6193 42.2835 19.6267C42.3361 19.6305 42.3858 19.6329 42.4322 19.6345C42.4555 19.6353 42.4782 19.6358 42.5002 19.6362C42.5112 19.6363 42.522 19.6365 42.5328 19.6366C42.5381 19.6366 42.5434 19.6366 42.5487 19.6367C42.5513 19.6367 42.554 19.6367 42.5566 19.6367C42.5579 19.6367 42.5599 19.6367 42.5605 19.6367C42.5625 19.6367 42.5644 19.6367 42.5644 15.6367ZM42.6597 11.7319C44.0125 11.7319 44.9251 12.3834 45.2025 12.5914C45.3876 12.7303 45.5291 12.8588 45.6097 12.9343C45.6888 13.0084 45.7587 13.0788 45.7738 13.094L40.117 18.7508C40.0171 18.6509 40.1783 18.8233 40.4025 18.9914C40.5847 19.1281 41.4021 19.7319 42.6597 19.7319V11.7319ZM46.9454 15.9224V16.0176H38.9454V15.9224H46.9454ZM46.2503 13.7643L51.9646 22.1452L45.3548 26.6519L39.6405 18.271L46.2503 13.7643Z" fill="#5B0F00" mask="url(#path-1-inside-1_149_17769)"/>
</svg>
