<svg width="51" height="51" viewBox="0 0 51 51" fill="none" xmlns="http://www.w3.org/2000/svg">
<mask id="path-1-inside-1_149_17767" fill="white">
<path d="M15.5644 22.4938L10.0406 31.0653H9.94538C9.94538 31.1605 9.85014 31.2557 9.7549 31.351H9.56443C9.56443 31.4462 9.46919 31.4462 9.37395 31.4462H9.27871H9.18348H8.80252L8.70728 31.351C8.61205 31.2557 8.51681 31.2557 8.42157 31.1605L1.7549 23.4462C1.37395 23.0653 1.46919 22.3986 1.85014 22.0176C2.23109 21.6367 2.89776 21.7319 3.27871 22.1129L7.7549 27.2557C7.56443 23.6367 8.51681 20.0176 10.4216 16.8748C12.993 12.6843 16.993 9.82716 21.7549 8.6843C28.3263 7.16049 35.1835 9.35097 39.6597 14.3986C40.0406 14.7795 40.0406 15.4462 39.5644 15.8272C39.1835 16.2081 38.5168 16.1129 38.1359 15.7319C34.1359 11.2557 28.0406 9.25573 22.2311 10.6843C18.0406 11.6367 14.4216 14.3034 12.1359 17.9224C10.3263 20.8748 9.56443 24.3034 9.7549 27.6367L13.8501 21.351C14.1359 20.8748 14.8025 20.7795 15.1835 21.0653C15.6597 21.351 15.8501 22.0176 15.5644 22.4938ZM49.6597 32.3986C49.9454 32.8748 49.8501 33.5414 49.374 33.8272C49.1835 33.9224 48.993 34.0176 48.8025 34.0176C48.5168 34.0176 48.1359 33.8272 47.9454 33.5414L44.2311 27.9224C43.5644 35.7319 38.0406 42.3986 30.2311 44.3034C28.8025 44.5891 27.374 44.7795 25.9454 44.7795C21.1835 44.7795 16.612 42.97 13.0882 39.5414C12.7073 39.0653 12.7073 38.4938 13.0882 38.1129C13.4692 37.6367 14.1359 37.6367 14.5168 38.0176C18.612 42.0176 24.2311 43.6367 29.7549 42.3034C36.8978 40.5891 41.8501 34.3986 42.2311 27.2557L37.374 32.97C37.0882 33.4462 36.4216 33.4462 35.9454 33.1605C35.5644 32.7795 35.4692 32.1129 35.8501 31.7319L42.3263 23.9224L42.612 23.6367C42.8025 23.6367 42.8978 23.5414 42.993 23.5414H43.1835H43.2787C43.374 23.5414 43.4692 23.6367 43.5644 23.6367C43.5644 23.6367 43.6597 23.6367 43.6597 23.7319C43.7549 23.7319 43.8501 23.8272 43.9454 23.9224V24.0176L49.6597 32.3986Z"/>
</mask>
<path d="M15.5644 22.4938L10.0406 31.0653H9.94538C9.94538 31.1605 9.85014 31.2557 9.7549 31.351H9.56443C9.56443 31.4462 9.46919 31.4462 9.37395 31.4462H9.27871H9.18348H8.80252L8.70728 31.351C8.61205 31.2557 8.51681 31.2557 8.42157 31.1605L1.7549 23.4462C1.37395 23.0653 1.46919 22.3986 1.85014 22.0176C2.23109 21.6367 2.89776 21.7319 3.27871 22.1129L7.7549 27.2557C7.56443 23.6367 8.51681 20.0176 10.4216 16.8748C12.993 12.6843 16.993 9.82716 21.7549 8.6843C28.3263 7.16049 35.1835 9.35097 39.6597 14.3986C40.0406 14.7795 40.0406 15.4462 39.5644 15.8272C39.1835 16.2081 38.5168 16.1129 38.1359 15.7319C34.1359 11.2557 28.0406 9.25573 22.2311 10.6843C18.0406 11.6367 14.4216 14.3034 12.1359 17.9224C10.3263 20.8748 9.56443 24.3034 9.7549 27.6367L13.8501 21.351C14.1359 20.8748 14.8025 20.7795 15.1835 21.0653C15.6597 21.351 15.8501 22.0176 15.5644 22.4938ZM49.6597 32.3986C49.9454 32.8748 49.8501 33.5414 49.374 33.8272C49.1835 33.9224 48.993 34.0176 48.8025 34.0176C48.5168 34.0176 48.1359 33.8272 47.9454 33.5414L44.2311 27.9224C43.5644 35.7319 38.0406 42.3986 30.2311 44.3034C28.8025 44.5891 27.374 44.7795 25.9454 44.7795C21.1835 44.7795 16.612 42.97 13.0882 39.5414C12.7073 39.0653 12.7073 38.4938 13.0882 38.1129C13.4692 37.6367 14.1359 37.6367 14.5168 38.0176C18.612 42.0176 24.2311 43.6367 29.7549 42.3034C36.8978 40.5891 41.8501 34.3986 42.2311 27.2557L37.374 32.97C37.0882 33.4462 36.4216 33.4462 35.9454 33.1605C35.5644 32.7795 35.4692 32.1129 35.8501 31.7319L42.3263 23.9224L42.612 23.6367C42.8025 23.6367 42.8978 23.5414 42.993 23.5414H43.1835H43.2787C43.374 23.5414 43.4692 23.6367 43.5644 23.6367C43.5644 23.6367 43.6597 23.6367 43.6597 23.7319C43.7549 23.7319 43.8501 23.8272 43.9454 23.9224V24.0176L49.6597 32.3986Z" fill="#9F1E24"/>
<path d="M15.5644 22.4938L18.9944 24.5518L18.9614 24.6068L18.9267 24.6606L15.5644 22.4938ZM10.0406 31.0653L13.4029 33.2321L12.2215 35.0653H10.0406V31.0653ZM9.94538 31.0653H5.94538V27.0653H9.94538V31.0653ZM9.7549 31.351L12.5833 34.1794L11.4118 35.351H9.7549V31.351ZM9.56443 31.351H5.56443V27.351H9.56443V31.351ZM8.80252 31.4462V35.4462H7.14567L5.9741 34.2746L8.80252 31.4462ZM8.42157 31.1605L5.59314 33.9889L5.49026 33.886L5.39512 33.7759L8.42157 31.1605ZM1.7549 23.4462L4.58333 20.6178L4.68622 20.7207L4.78136 20.8308L1.7549 23.4462ZM3.27871 22.1129L6.10714 19.2844L6.20504 19.3823L6.29593 19.4868L3.27871 22.1129ZM7.7549 27.2557L11.7494 27.0455L12.3596 38.6389L4.73768 29.8818L7.7549 27.2557ZM10.4216 16.8748L7.00078 14.8016L7.0065 14.7921L7.01228 14.7827L10.4216 16.8748ZM21.7549 8.6843L20.8214 4.79475L20.8364 4.79116L20.8513 4.78769L21.7549 8.6843ZM39.6597 14.3986L36.8312 17.227L36.7465 17.1422L36.6669 17.0525L39.6597 14.3986ZM39.5644 15.8272L36.736 12.9987L36.8927 12.8421L37.0656 12.7037L39.5644 15.8272ZM38.1359 15.7319L35.3074 18.5603L35.228 18.481L35.1532 18.3972L38.1359 15.7319ZM22.2311 10.6843L23.1862 14.5686L23.152 14.577L23.1176 14.5848L22.2311 10.6843ZM12.1359 17.9224L8.72545 15.8321L8.73952 15.8092L8.7539 15.7864L12.1359 17.9224ZM9.7549 27.6367L13.1064 29.8202L6.4564 40.0271L5.76142 27.8649L9.7549 27.6367ZM13.8501 21.351L17.2801 23.409L17.242 23.4724L17.2016 23.5345L13.8501 21.351ZM15.1835 21.0653L13.1255 24.4952L12.9486 24.3891L12.7835 24.2653L15.1835 21.0653ZM49.6597 32.3986L52.9646 30.1452L53.0299 30.2411L53.0896 30.3406L49.6597 32.3986ZM49.374 33.8272L51.4319 37.2571L51.3002 37.3362L51.1628 37.4049L49.374 33.8272ZM47.9454 33.5414L44.6172 35.7602L44.6128 35.7537L44.6085 35.7472L47.9454 33.5414ZM44.2311 27.9224L40.2456 27.5822L41.2241 16.1195L47.568 25.7167L44.2311 27.9224ZM30.2311 44.3034L31.1789 48.1894L31.0976 48.2093L31.0156 48.2257L30.2311 44.3034ZM13.0882 39.5414L10.2988 42.4083L10.1203 42.2347L9.96476 42.0402L13.0882 39.5414ZM13.0882 38.1129L16.2117 40.6117L16.0733 40.7846L15.9167 40.9413L13.0882 38.1129ZM14.5168 38.0176L11.7219 40.8791L11.705 40.8627L11.6884 40.8461L14.5168 38.0176ZM29.7549 42.3034L28.8163 38.415L28.8214 38.4138L29.7549 42.3034ZM42.2311 27.2557L39.1833 24.6651L46.8564 15.638L46.2254 27.4688L42.2311 27.2557ZM37.374 32.97L33.944 30.912L34.1132 30.63L34.3262 30.3794L37.374 32.97ZM35.9454 33.1605L33.8874 36.5905L33.4651 36.3371L33.117 35.9889L35.9454 33.1605ZM35.8501 31.7319L38.9292 34.2853L38.8103 34.4286L38.6786 34.5603L35.8501 31.7319ZM42.3263 23.9224L39.2473 21.3691L39.3662 21.2257L39.4979 21.094L42.3263 23.9224ZM42.612 23.6367L39.7836 20.8083L40.9552 19.6367H42.612V23.6367ZM43.6597 23.7319V27.7319H39.6597V23.7319H43.6597ZM43.9454 23.9224L46.7738 21.094L47.9454 22.2655V23.9224H43.9454ZM43.9454 24.0176L40.6405 26.271L39.9454 25.2515V24.0176H43.9454ZM18.9267 24.6606L13.4029 33.2321L6.67833 28.8984L12.2021 20.327L18.9267 24.6606ZM10.0406 35.0653H9.94538V27.0653H10.0406V35.0653ZM13.9454 31.0653C13.9454 32.4181 13.2939 33.3307 13.0859 33.6081C12.947 33.7932 12.8185 33.9347 12.743 34.0153C12.6689 34.0944 12.5985 34.1643 12.5833 34.1794L6.92648 28.5225C7.02638 28.4226 6.85403 28.5839 6.68586 28.8081C6.54923 28.9903 5.94538 29.8077 5.94538 31.0653H13.9454ZM9.7549 35.351H9.56443V27.351H9.7549V35.351ZM13.5644 31.351C13.5644 32.0665 13.3721 33.0046 12.7055 33.8618C12.0657 34.6844 11.277 35.06 10.7698 35.229C10.286 35.3903 9.87944 35.4246 9.70997 35.4359C9.60823 35.4426 9.52425 35.4447 9.47296 35.4455C9.42409 35.4463 9.38019 35.4462 9.37395 35.4462V27.4462C9.4262 27.4462 9.31253 27.4446 9.17782 27.4536C9.05299 27.4619 8.68806 27.4902 8.23999 27.6396C7.76848 27.7967 7.00959 28.1545 6.39065 28.9503C5.74481 29.7806 5.56443 30.6831 5.56443 31.351H13.5644ZM9.37395 35.4462H9.27871V27.4462H9.37395V35.4462ZM9.27871 35.4462H9.18348V27.4462H9.27871V35.4462ZM9.18348 35.4462H8.80252V27.4462H9.18348V35.4462ZM5.9741 34.2746L5.87886 34.1794L11.5357 28.5225L11.6309 28.6178L5.9741 34.2746ZM5.87886 34.1794C5.98618 34.2867 6.09698 34.3839 6.20899 34.4714C6.32058 34.5586 6.42502 34.6296 6.51586 34.6864C6.60506 34.7422 6.6788 34.7827 6.72352 34.8064C6.76235 34.8271 6.79442 34.8429 6.77557 34.8334C6.77061 34.831 6.71473 34.8032 6.65209 34.77C6.58356 34.7336 6.48601 34.6797 6.373 34.609C6.25835 34.5374 6.13011 34.45 5.99471 34.3442C5.85889 34.2381 5.72427 34.12 5.59314 33.9889L11.25 28.3321C11.1427 28.2247 11.0319 28.1275 10.9199 28.04C10.8083 27.9528 10.7038 27.8818 10.613 27.825C10.5238 27.7693 10.4501 27.7288 10.4053 27.705C10.3665 27.6844 10.3344 27.6686 10.3533 27.678C10.3582 27.6805 10.4141 27.7082 10.4768 27.7415C10.5453 27.7779 10.6428 27.8318 10.7559 27.9024C10.8705 27.9741 10.9987 28.0615 11.1341 28.1672C11.27 28.2734 11.4046 28.3914 11.5357 28.5225L5.87886 34.1794ZM5.39512 33.7759L-1.27155 26.0617L4.78136 20.8308L11.448 28.545L5.39512 33.7759ZM-1.07352 26.2746C-2.26407 25.0841 -2.57563 23.5673 -2.46676 22.3698C-2.36034 21.1991 -1.84669 20.0576 -0.978285 19.1892L4.67857 24.8461C5.16602 24.3586 5.44158 23.7409 5.50038 23.0941C5.56163 22.4203 5.39293 21.4274 4.58333 20.6178L-1.07352 26.2746ZM-0.978285 19.1892C0.212261 17.9987 1.72904 17.6871 2.92657 17.796C4.09723 17.9024 5.23874 18.416 6.10714 19.2844L0.450287 24.9413C0.937737 25.4288 1.55544 25.7043 2.20229 25.7631C2.87601 25.8244 3.86898 25.6557 4.67857 24.8461L-0.978285 19.1892ZM6.29593 19.4868L10.7721 24.6296L4.73768 29.8818L0.261495 24.739L6.29593 19.4868ZM3.76043 27.466C3.52579 23.0078 4.7 18.5979 7.00078 14.8016L13.8424 18.948C12.3336 21.4374 11.6031 24.2655 11.7494 27.0455L3.76043 27.466ZM7.01228 14.7827C10.1491 9.6709 15.0491 6.18011 20.8214 4.79475L22.6884 12.5739C18.9369 13.4742 15.8369 15.6977 13.8309 18.9668L7.01228 14.7827ZM20.8513 4.78769C28.8528 2.93229 37.2045 5.60123 42.6524 11.7446L36.6669 17.0525C33.1625 13.1007 27.7999 11.3887 22.6585 12.5809L20.8513 4.78769ZM42.4881 11.5702C44.4986 13.5806 44.4626 17.0311 42.0632 18.9506L37.0656 12.7037C35.6186 13.8613 35.5827 15.9785 36.8312 17.227L42.4881 11.5702ZM42.3929 18.6556C41.2023 19.8461 39.6855 20.1577 38.488 20.0488C37.3173 19.9424 36.1758 19.4288 35.3074 18.5603L40.9643 12.9035C40.4768 12.416 39.8591 12.1405 39.2123 12.0817C38.5386 12.0204 37.5456 12.1891 36.736 12.9987L42.3929 18.6556ZM35.1532 18.3972C32.0983 14.9786 27.4999 13.5079 23.1862 14.5686L21.2759 6.80001C28.5813 5.00361 36.1735 7.53289 41.1185 13.0666L35.1532 18.3972ZM23.1176 14.5848C20.0153 15.2899 17.2693 17.2852 15.5178 20.0584L8.7539 15.7864C11.5739 11.3215 16.0659 7.98348 21.3446 6.78377L23.1176 14.5848ZM15.5463 20.0126C14.1963 22.2152 13.6006 24.823 13.7484 27.4085L5.76142 27.8649C5.52821 23.7837 6.45634 19.5344 8.72545 15.8321L15.5463 20.0126ZM6.40345 25.4532L10.4987 19.1674L17.2016 23.5345L13.1064 29.8202L6.40345 25.4532ZM10.4202 19.293C11.23 17.9433 12.5266 17.2228 13.7326 16.993C14.8943 16.7718 16.3463 16.9374 17.5835 17.8653L12.7835 24.2653C13.6397 24.9074 14.5679 24.9778 15.2295 24.8518C15.9356 24.7173 16.756 24.2824 17.2801 23.409L10.4202 19.293ZM17.2415 17.6353C19.4729 18.9742 20.4984 22.0452 18.9944 24.5518L12.1345 20.4358C11.6399 21.2601 11.6267 22.1229 11.8006 22.7606C11.9729 23.3922 12.3928 24.0556 13.1255 24.4952L17.2415 17.6353ZM53.0896 30.3406C54.2512 32.2765 54.2096 35.5905 51.4319 37.2571L47.316 30.3972C46.4226 30.9332 45.9933 31.7744 45.867 32.4688C45.7454 33.1376 45.8604 33.841 46.2297 34.4566L53.0896 30.3406ZM51.1628 37.4049C51.1055 37.4335 50.8195 37.5809 50.4927 37.7034C50.149 37.8323 49.553 38.0176 48.8025 38.0176V30.0176C48.2425 30.0176 47.837 30.1553 47.6837 30.2128C47.5474 30.2639 47.4519 30.316 47.5851 30.2495L51.1628 37.4049ZM48.8025 38.0176C47.8482 38.0176 47.0318 37.7263 46.4418 37.4086C45.8335 37.081 45.1462 36.5538 44.6172 35.7602L51.2736 31.3226C50.935 30.8148 50.5334 30.5257 50.2346 30.3648C49.9542 30.2138 49.4711 30.0176 48.8025 30.0176V38.0176ZM44.6085 35.7472L40.8942 30.1281L47.568 25.7167L51.2823 31.3357L44.6085 35.7472ZM48.2166 28.2626C47.4069 37.7473 40.6926 45.869 31.1789 48.1894L29.2833 40.4173C35.3886 38.9282 39.7219 33.7165 40.2456 27.5822L48.2166 28.2626ZM31.0156 48.2257C29.4284 48.5431 27.7226 48.7795 25.9454 48.7795V40.7795C27.0253 40.7795 28.1766 40.635 29.4466 40.381L31.0156 48.2257ZM25.9454 48.7795C20.1507 48.7795 14.5759 46.5698 10.2988 42.4083L15.8777 36.6745C18.6482 39.3702 22.2162 40.7795 25.9454 40.7795V48.7795ZM9.96476 42.0402C8.56547 40.2911 8.1664 37.3779 10.2598 35.2844L15.9167 40.9413C16.4716 40.3864 16.8025 39.6091 16.8025 38.7914C16.8025 38.0091 16.5059 37.4105 16.2117 37.0427L9.96476 42.0402ZM9.96476 35.6141C11.8843 33.2147 15.3348 33.1787 17.3452 35.1892L11.6884 40.8461C12.9369 42.0946 15.0541 42.0587 16.2117 40.6117L9.96476 35.6141ZM17.3118 35.1561C20.455 38.2263 24.6749 39.4147 28.8163 38.415L30.6935 46.1917C23.7873 47.8587 16.7691 45.809 11.7219 40.8791L17.3118 35.1561ZM28.8214 38.4138C34.1973 37.1236 37.9476 32.465 38.2368 27.0427L46.2254 27.4688C45.7527 36.3322 39.5982 44.0545 30.6884 46.1929L28.8214 38.4138ZM45.2789 29.8463L40.4217 35.5606L34.3262 30.3794L39.1833 24.6651L45.2789 29.8463ZM40.8039 35.028C39.874 36.5779 38.3512 37.2202 37.0932 37.3345C35.9052 37.4425 34.7799 37.126 33.8874 36.5905L38.0034 29.7305C37.587 29.4807 37.0332 29.307 36.3689 29.3674C35.6348 29.4341 34.5882 29.8383 33.944 30.912L40.8039 35.028ZM33.117 35.9889C32.2486 35.1205 31.7349 33.979 31.6285 32.8084C31.5196 31.6108 31.8312 30.094 33.0217 28.9035L38.6786 34.5603C39.4882 33.7508 39.6569 32.7578 39.5956 32.0841C39.5368 31.4372 39.2613 30.8195 38.7738 30.3321L33.117 35.9889ZM32.7711 29.1786L39.2473 21.3691L45.4054 26.4757L38.9292 34.2853L32.7711 29.1786ZM39.4979 21.094L39.7836 20.8083L45.4405 26.4651L45.1548 26.7508L39.4979 21.094ZM42.612 19.6367C42.3164 19.6367 42.0442 19.6748 41.805 19.7323C41.5758 19.7873 41.4076 19.8532 41.3527 19.8752C41.3396 19.8804 41.331 19.884 41.3328 19.8832C41.3343 19.8826 41.3346 19.8825 41.3402 19.8801C41.3444 19.8784 41.3518 19.8753 41.3604 19.8718C41.3873 19.8608 41.4769 19.8239 41.5888 19.7844C41.7039 19.7438 41.8865 19.6844 42.1149 19.6352C42.3481 19.585 42.6462 19.5414 42.993 19.5414V27.5414C43.316 27.5414 43.5903 27.5009 43.7993 27.4559C44.0035 27.4119 44.1616 27.36 44.2514 27.3283C44.2982 27.3118 44.3354 27.2975 44.3589 27.2883C44.382 27.2793 44.3984 27.2725 44.4013 27.2713C44.403 27.2706 44.4036 27.2704 44.4009 27.2715C44.3995 27.2721 44.3929 27.2748 44.3873 27.2771C44.3749 27.2823 44.3517 27.2918 44.3238 27.303C44.2093 27.3488 43.9757 27.4385 43.672 27.5114C43.3584 27.5866 43.0029 27.6367 42.612 27.6367V19.6367ZM42.993 19.5414H43.1835V27.5414H42.993V19.5414ZM43.1835 19.5414H43.2787V27.5414H43.1835V19.5414ZM43.2787 19.5414C43.6242 19.5414 43.9255 19.5846 44.1692 19.6379C44.4106 19.6907 44.6097 19.7567 44.7546 19.811C44.8989 19.8651 45.014 19.9171 45.0836 19.9497C45.1491 19.9805 45.2065 20.0094 45.2104 20.0114C45.2303 20.0213 45.1967 20.0043 45.155 19.9847C45.1093 19.9633 45.018 19.9217 44.8975 19.8765C44.7764 19.8311 44.6011 19.7726 44.3835 19.725C44.1636 19.6769 43.8861 19.6367 43.5644 19.6367V27.6367C43.2189 27.6367 42.9176 27.5935 42.6739 27.5402C42.4325 27.4874 42.2334 27.4215 42.0885 27.3671C41.9442 27.313 41.8291 27.261 41.7595 27.2284C41.694 27.1977 41.6367 27.1687 41.6327 27.1668C41.6128 27.1568 41.6464 27.1739 41.6881 27.1934C41.7339 27.2149 41.8251 27.2565 41.9456 27.3016C42.0667 27.3471 42.242 27.4055 42.4596 27.4531C42.6795 27.5012 42.957 27.5414 43.2787 27.5414V19.5414ZM43.5644 23.6367C43.5644 19.6367 43.5664 19.6367 43.5683 19.6367C43.569 19.6367 43.571 19.6367 43.5723 19.6367C43.5749 19.6367 43.5775 19.6367 43.5802 19.6367C43.5855 19.6367 43.5908 19.6368 43.5962 19.6368C43.607 19.6369 43.618 19.637 43.6292 19.6372C43.6516 19.6376 43.6748 19.6381 43.6988 19.6389C43.7466 19.6405 43.7984 19.6431 43.8535 19.647C43.9625 19.6548 44.092 19.6684 44.2369 19.6926C44.5078 19.7377 44.9301 19.8355 45.4009 20.0709C45.8873 20.3141 46.4954 20.7417 46.973 21.4581C47.4672 22.1994 47.6597 23.0082 47.6597 23.7319H39.6597C39.6597 24.4081 39.8402 25.1811 40.3166 25.8957C40.7763 26.5852 41.3606 26.995 41.8232 27.2263C42.2701 27.4498 42.6687 27.5416 42.9217 27.5837C43.0577 27.6064 43.1798 27.6193 43.2835 27.6267C43.3361 27.6305 43.3858 27.6329 43.4322 27.6345C43.4555 27.6353 43.4782 27.6358 43.5002 27.6362C43.5112 27.6363 43.522 27.6365 43.5328 27.6366C43.5381 27.6366 43.5434 27.6366 43.5487 27.6367C43.5513 27.6367 43.554 27.6367 43.5566 27.6367C43.5579 27.6367 43.5599 27.6367 43.5605 27.6367C43.5625 27.6367 43.5644 27.6367 43.5644 23.6367ZM43.6597 19.7319C45.0125 19.7319 45.9251 20.3834 46.2025 20.5914C46.3876 20.7303 46.5291 20.8588 46.6097 20.9343C46.6888 21.0084 46.7587 21.0788 46.7738 21.094L41.117 26.7508C41.0171 26.6509 41.1783 26.8233 41.4025 26.9914C41.5847 27.1281 42.4021 27.7319 43.6597 27.7319V19.7319ZM47.9454 23.9224V24.0176H39.9454V23.9224H47.9454ZM47.2503 21.7643L52.9646 30.1452L46.3548 34.6519L40.6405 26.271L47.2503 21.7643Z" fill="#9F1E24" mask="url(#path-1-inside-1_149_17767)"/>
</svg>
