<svg width="51" height="51" viewBox="0 0 51 51" fill="none" xmlns="http://www.w3.org/2000/svg">
<mask id="path-1-inside-1_149_17773" fill="white">
<path d="M43.9551 40.208C45.8599 40.208 47.3837 38.7794 47.3837 36.8747V16.1128C47.3837 14.3985 45.9551 12.8747 44.1456 12.7794H7.85987H7.57415C5.76463 12.8747 4.33606 14.3032 4.33606 16.1128V36.8747C4.33606 37.7318 4.71701 38.589 5.28844 39.2556C5.95511 39.8271 6.81225 40.208 7.66939 40.208H43.9551ZM5.95511 25.7318V19.4461H33.6694L30.5265 25.7318H5.95511ZM32.3361 25.7318L35.3837 19.4461H37.5742L34.4313 25.7318H32.3361ZM45.8599 16.1128V17.9223H5.95511V16.1128C5.95511 15.1604 6.62177 14.3985 7.57415 14.3032H43.8599H44.1456C45.098 14.3985 45.8599 15.1604 45.8599 16.1128ZM45.8599 19.4461V25.7318H36.1456L39.2884 19.4461H45.8599ZM45.8599 27.2556V36.8747C45.7646 37.8271 45.0027 38.6842 43.9551 38.6842H7.66939C7.1932 38.6842 6.81225 38.4937 6.4313 38.1128C6.05035 37.8271 5.85987 37.3509 5.95511 36.8747V27.2556H45.8599ZM23.2884 33.7318C23.6694 33.7318 24.0503 33.4461 24.0503 32.9699C24.0503 32.589 23.6694 32.208 23.2884 32.208H10.3361C9.85987 32.208 9.57415 32.589 9.57415 32.9699C9.57415 33.4461 9.85987 33.7318 10.3361 33.7318H23.2884Z"/>
</mask>
<path d="M43.9551 40.208C45.8599 40.208 47.3837 38.7794 47.3837 36.8747V16.1128C47.3837 14.3985 45.9551 12.8747 44.1456 12.7794H7.85987H7.57415C5.76463 12.8747 4.33606 14.3032 4.33606 16.1128V36.8747C4.33606 37.7318 4.71701 38.589 5.28844 39.2556C5.95511 39.8271 6.81225 40.208 7.66939 40.208H43.9551ZM5.95511 25.7318V19.4461H33.6694L30.5265 25.7318H5.95511ZM32.3361 25.7318L35.3837 19.4461H37.5742L34.4313 25.7318H32.3361ZM45.8599 16.1128V17.9223H5.95511V16.1128C5.95511 15.1604 6.62177 14.3985 7.57415 14.3032H43.8599H44.1456C45.098 14.3985 45.8599 15.1604 45.8599 16.1128ZM45.8599 19.4461V25.7318H36.1456L39.2884 19.4461H45.8599ZM45.8599 27.2556V36.8747C45.7646 37.8271 45.0027 38.6842 43.9551 38.6842H7.66939C7.1932 38.6842 6.81225 38.4937 6.4313 38.1128C6.05035 37.8271 5.85987 37.3509 5.95511 36.8747V27.2556H45.8599ZM23.2884 33.7318C23.6694 33.7318 24.0503 33.4461 24.0503 32.9699C24.0503 32.589 23.6694 32.208 23.2884 32.208H10.3361C9.85987 32.208 9.57415 32.589 9.57415 32.9699C9.57415 33.4461 9.85987 33.7318 10.3361 33.7318H23.2884Z" fill="#9F1E24"/>
<path d="M44.1456 12.7794V8.77944H44.2508L44.3558 8.78496L44.1456 12.7794ZM7.57415 12.7794L7.36392 8.78496L7.46896 8.77944H7.57415V12.7794ZM5.28844 39.2556L2.68528 42.2927L2.45166 42.0924L2.25141 41.8588L5.28844 39.2556ZM5.95511 25.7318V29.7318H1.95511V25.7318H5.95511ZM5.95511 19.4461H1.95511V15.4461H5.95511V19.4461ZM33.6694 19.4461V15.4461H40.1415L37.2471 21.235L33.6694 19.4461ZM30.5265 25.7318L34.1042 27.5207L32.9987 29.7318H30.5265V25.7318ZM32.3361 25.7318V29.7318H25.9513L28.7368 23.9867L32.3361 25.7318ZM35.3837 19.4461L31.7844 17.701L32.8777 15.4461H35.3837V19.4461ZM37.5742 19.4461V15.4461H44.0463L41.1519 21.235L37.5742 19.4461ZM34.4313 25.7318L38.009 27.5207L36.9034 29.7318H34.4313V25.7318ZM45.8599 17.9223H49.8599V21.9223H45.8599V17.9223ZM5.95511 17.9223V21.9223H1.95511V17.9223H5.95511ZM7.57415 14.3032L7.17614 10.3231L7.37465 10.3032H7.57415V14.3032ZM44.1456 14.3032V10.3032H44.3451L44.5436 10.3231L44.1456 14.3032ZM45.8599 19.4461V15.4461H49.8599V19.4461H45.8599ZM45.8599 25.7318H49.8599V29.7318H45.8599V25.7318ZM36.1456 25.7318V29.7318H29.6734L32.5679 23.943L36.1456 25.7318ZM39.2884 19.4461L35.7107 17.6572L36.8163 15.4461H39.2884V19.4461ZM45.8599 27.2556V23.2556H49.8599V27.2556H45.8599ZM45.8599 36.8747H49.8599V37.0742L49.84 37.2727L45.8599 36.8747ZM6.4313 38.1128L8.8313 34.9128L9.05871 35.0833L9.25972 35.2843L6.4313 38.1128ZM5.95511 36.8747H9.95511V37.2708L9.87743 37.6591L5.95511 36.8747ZM5.95511 27.2556H1.95511V23.2556H5.95511V27.2556ZM43.9551 36.208C43.8948 36.208 43.7524 36.2366 43.6112 36.3723C43.4598 36.518 43.3837 36.72 43.3837 36.8747H51.3837C51.3837 41.135 47.9197 44.208 43.9551 44.208V36.208ZM43.3837 36.8747V16.1128H51.3837V36.8747H43.3837ZM43.3837 16.1128C43.3837 16.377 43.4899 16.5385 43.5588 16.6103C43.6332 16.6877 43.7614 16.7647 43.9353 16.7739L44.3558 8.78496C48.2435 8.98958 51.3837 12.2249 51.3837 16.1128H43.3837ZM44.1456 16.7794H7.85987V8.77944H44.1456V16.7794ZM7.85987 16.7794H7.57415V8.77944H7.85987V16.7794ZM7.78439 16.7739C7.88357 16.7687 8.01758 16.7211 8.13339 16.603C8.25596 16.4779 8.33606 16.2926 8.33606 16.1128H0.33606C0.33606 12.0578 3.54977 8.98571 7.36392 8.78496L7.78439 16.7739ZM8.33606 16.1128V36.8747H0.33606V16.1128H8.33606ZM8.33606 36.8747C8.33606 36.7129 8.30136 36.625 8.29668 36.6136C8.29205 36.6023 8.29956 36.6222 8.32547 36.6525L2.25141 41.8588C1.19945 40.6315 0.33606 38.8829 0.33606 36.8747H8.33606ZM7.89161 36.2186C7.92183 36.2445 7.94173 36.252 7.93049 36.2474C7.91911 36.2427 7.83115 36.208 7.66939 36.208V44.208C5.66119 44.208 3.91256 43.3446 2.68528 42.2927L7.89161 36.2186ZM7.66939 36.208H43.9551V44.208H7.66939V36.208ZM1.95511 25.7318V19.4461H9.95511V25.7318H1.95511ZM5.95511 15.4461H33.6694V23.4461H5.95511V15.4461ZM37.2471 21.235L34.1042 27.5207L26.9488 23.943L30.0917 17.6572L37.2471 21.235ZM30.5265 29.7318H5.95511V21.7318H30.5265V29.7318ZM28.7368 23.9867L31.7844 17.701L38.9829 21.1912L35.9353 27.4769L28.7368 23.9867ZM35.3837 15.4461H37.5742V23.4461H35.3837V15.4461ZM41.1519 21.235L38.009 27.5207L30.8536 23.943L33.9964 17.6572L41.1519 21.235ZM34.4313 29.7318H32.3361V21.7318H34.4313V29.7318ZM49.8599 16.1128V17.9223H41.8599V16.1128H49.8599ZM45.8599 21.9223H5.95511V13.9223H45.8599V21.9223ZM1.95511 17.9223V16.1128H9.95511V17.9223H1.95511ZM1.95511 16.1128C1.95511 13.1699 4.11541 10.6292 7.17614 10.3231L7.97217 18.2834C8.48257 18.2324 9.00721 17.9827 9.39713 17.544C9.78236 17.1106 9.95511 16.5856 9.95511 16.1128H1.95511ZM7.57415 10.3032H43.8599V18.3032H7.57415V10.3032ZM43.8599 10.3032H44.1456V18.3032H43.8599V10.3032ZM44.5436 10.3231C47.3154 10.6003 49.8599 12.8865 49.8599 16.1128H41.8599C41.8599 17.4343 42.8806 18.1967 43.7476 18.2834L44.5436 10.3231ZM49.8599 19.4461V25.7318H41.8599V19.4461H49.8599ZM45.8599 29.7318H36.1456V21.7318H45.8599V29.7318ZM32.5679 23.943L35.7107 17.6572L42.8661 21.235L39.7233 27.5207L32.5679 23.943ZM39.2884 15.4461H45.8599V23.4461H39.2884V15.4461ZM49.8599 27.2556V36.8747H41.8599V27.2556H49.8599ZM49.84 37.2727C49.5769 39.9035 47.4062 42.6842 43.9551 42.6842V34.6842C43.3305 34.6842 42.7888 34.9556 42.4362 35.3082C42.1112 35.6332 41.9232 36.0417 41.8797 36.4767L49.84 37.2727ZM43.9551 42.6842H7.66939V34.6842H43.9551V42.6842ZM7.66939 42.6842C5.87577 42.6842 4.53065 41.869 3.60287 40.9412L9.25972 35.2843C9.21941 35.244 9.04053 35.0739 8.71782 34.9221C8.36706 34.757 7.99721 34.6842 7.66939 34.6842V42.6842ZM4.0313 41.3128C2.44813 40.1254 1.62814 38.1134 2.03278 36.0902L9.87743 37.6591C10.0916 36.5883 9.65256 35.5287 8.8313 34.9128L4.0313 41.3128ZM1.95511 36.8747V27.2556H9.95511V36.8747H1.95511ZM5.95511 23.2556H45.8599V31.2556H5.95511V23.2556ZM23.2884 29.7318C22.5065 29.7318 21.7248 30.0166 21.1094 30.5808C20.4421 31.1925 20.0503 32.0647 20.0503 32.9699H28.0503C28.0503 35.9757 25.5438 37.7318 23.2884 37.7318V29.7318ZM20.0503 32.9699C20.0503 34.0804 20.5653 34.856 20.9838 35.2745C21.4023 35.6931 22.178 36.208 23.2884 36.208V28.208C24.7798 28.208 25.9364 28.9134 26.6407 29.6177C27.3449 30.3219 28.0503 31.4785 28.0503 32.9699H20.0503ZM23.2884 36.208H10.3361V28.208H23.2884V36.208ZM10.3361 36.208C11.2412 36.208 12.1135 35.8163 12.7252 35.149C13.2893 34.5335 13.5742 33.7519 13.5742 32.9699H5.57415C5.57415 30.7146 7.33022 28.208 10.3361 28.208V36.208ZM13.5742 32.9699C13.5742 32.406 13.3893 31.4853 12.605 30.701C11.8207 29.9167 10.9 29.7318 10.3361 29.7318V37.7318C9.29593 37.7318 7.9943 37.4041 6.94811 36.3579C5.90191 35.3117 5.57415 34.01 5.57415 32.9699H13.5742ZM10.3361 29.7318H23.2884V37.7318H10.3361V29.7318Z" fill="#9F1E24" mask="url(#path-1-inside-1_149_17773)"/>
</svg>
