<svg width="51" height="51" viewBox="0 0 51 51" fill="none" xmlns="http://www.w3.org/2000/svg">
<mask id="path-1-inside-1_149_17755" fill="white">
<path d="M48.2619 26.6843V26.5891V26.4938V16.1129C48.2619 15.7319 47.881 15.351 47.5 15.351H32.8333V10.97C32.8333 10.4938 32.4524 10.2081 31.9762 10.2081H21.5952C21.3095 10.2081 21.1191 10.3033 20.9286 10.5891L5.40476 36.4938C5.30953 36.6843 5.30953 36.97 5.40476 37.2557C5.5 37.4462 5.78572 37.6367 6.07143 37.6367H8.64286C9.11905 37.6367 9.5 37.2557 9.5 36.8748C9.5 36.3986 9.11905 36.1129 8.64286 36.1129H7.40477L22.0714 11.7319H31.2143V31.0653C31.2143 31.5414 31.5952 31.8272 31.9762 31.8272C32.4524 31.8272 32.8333 31.5414 32.8333 31.0653V16.97H39.0238V26.5891C39.0238 26.97 39.3095 27.351 39.7857 27.351H46.7381V36.1129H44.9286C44.4524 36.1129 44.1667 36.3986 44.1667 36.8748C44.1667 37.2557 44.4524 37.6367 44.9286 37.6367H47.5C47.881 37.6367 48.2619 37.2557 48.2619 36.8748V26.6843ZM46.7381 16.97V25.7319H40.5476V16.97H46.7381ZM13.881 16.97C14.2619 16.97 14.6429 16.5891 14.6429 16.2081C14.6429 15.7319 14.2619 15.4462 13.881 15.4462H3.5C3.02381 15.4462 2.7381 15.7319 2.7381 16.2081C2.7381 16.5891 3.02381 16.97 3.5 16.97H13.881ZM3.5 20.5891C3.02381 20.5891 2.7381 20.97 2.7381 21.351C2.7381 21.8272 3.02381 22.1129 3.5 22.1129H10.7381C11.1191 22.1129 11.5 21.8272 11.5 21.351C11.5 20.97 11.1191 20.5891 10.7381 20.5891H3.5ZM3.5 25.7319C3.02381 25.7319 2.7381 26.1129 2.7381 26.4938C2.7381 26.97 3.02381 27.2557 3.5 27.2557H7.59524C8.07143 27.2557 8.45238 26.97 8.45238 26.4938C8.45238 26.1129 8.07143 25.7319 7.59524 25.7319H3.5ZM16.4524 30.8748C13.1191 30.8748 10.4524 33.5414 10.4524 36.8748C10.4524 40.1129 13.1191 42.7795 16.4524 42.7795C19.6905 42.7795 22.3571 40.1129 22.3571 36.8748C22.3571 33.5414 19.6905 30.8748 16.4524 30.8748ZM16.4524 41.2557C13.9762 41.2557 12.0714 39.2557 12.0714 36.8748C12.0714 34.3986 13.9762 32.4938 16.4524 32.4938C18.8333 32.4938 20.8333 34.3986 20.8333 36.8748C20.8333 39.2557 18.8333 41.2557 16.4524 41.2557ZM24.1667 36.1129C23.7857 36.1129 23.4048 36.3986 23.4048 36.8748C23.4048 37.2557 23.7857 37.6367 24.1667 37.6367H29.4048C29.881 37.6367 30.1667 37.2557 30.1667 36.8748C30.1667 36.3986 29.881 36.1129 29.4048 36.1129H24.1667ZM37.1191 30.8748C33.881 30.8748 31.2143 33.5414 31.2143 36.8748C31.2143 40.1129 33.881 42.7795 37.1191 42.7795C40.4524 42.7795 43.1191 40.1129 43.1191 36.8748C43.1191 33.5414 40.4524 30.8748 37.1191 30.8748ZM37.1191 41.2557C34.7381 41.2557 32.7381 39.2557 32.7381 36.8748C32.7381 34.3986 34.7381 32.4938 37.1191 32.4938C39.5952 32.4938 41.5952 34.3986 41.5952 36.8748C41.5952 39.2557 39.5952 41.2557 37.1191 41.2557Z"/>
</mask>
<path d="M48.2619 26.6843V26.5891V26.4938V16.1129C48.2619 15.7319 47.881 15.351 47.5 15.351H32.8333V10.97C32.8333 10.4938 32.4524 10.2081 31.9762 10.2081H21.5952C21.3095 10.2081 21.1191 10.3033 20.9286 10.5891L5.40476 36.4938C5.30953 36.6843 5.30953 36.97 5.40476 37.2557C5.5 37.4462 5.78572 37.6367 6.07143 37.6367H8.64286C9.11905 37.6367 9.5 37.2557 9.5 36.8748C9.5 36.3986 9.11905 36.1129 8.64286 36.1129H7.40477L22.0714 11.7319H31.2143V31.0653C31.2143 31.5414 31.5952 31.8272 31.9762 31.8272C32.4524 31.8272 32.8333 31.5414 32.8333 31.0653V16.97H39.0238V26.5891C39.0238 26.97 39.3095 27.351 39.7857 27.351H46.7381V36.1129H44.9286C44.4524 36.1129 44.1667 36.3986 44.1667 36.8748C44.1667 37.2557 44.4524 37.6367 44.9286 37.6367H47.5C47.881 37.6367 48.2619 37.2557 48.2619 36.8748V26.6843ZM46.7381 16.97V25.7319H40.5476V16.97H46.7381ZM13.881 16.97C14.2619 16.97 14.6429 16.5891 14.6429 16.2081C14.6429 15.7319 14.2619 15.4462 13.881 15.4462H3.5C3.02381 15.4462 2.7381 15.7319 2.7381 16.2081C2.7381 16.5891 3.02381 16.97 3.5 16.97H13.881ZM3.5 20.5891C3.02381 20.5891 2.7381 20.97 2.7381 21.351C2.7381 21.8272 3.02381 22.1129 3.5 22.1129H10.7381C11.1191 22.1129 11.5 21.8272 11.5 21.351C11.5 20.97 11.1191 20.5891 10.7381 20.5891H3.5ZM3.5 25.7319C3.02381 25.7319 2.7381 26.1129 2.7381 26.4938C2.7381 26.97 3.02381 27.2557 3.5 27.2557H7.59524C8.07143 27.2557 8.45238 26.97 8.45238 26.4938C8.45238 26.1129 8.07143 25.7319 7.59524 25.7319H3.5ZM16.4524 30.8748C13.1191 30.8748 10.4524 33.5414 10.4524 36.8748C10.4524 40.1129 13.1191 42.7795 16.4524 42.7795C19.6905 42.7795 22.3571 40.1129 22.3571 36.8748C22.3571 33.5414 19.6905 30.8748 16.4524 30.8748ZM16.4524 41.2557C13.9762 41.2557 12.0714 39.2557 12.0714 36.8748C12.0714 34.3986 13.9762 32.4938 16.4524 32.4938C18.8333 32.4938 20.8333 34.3986 20.8333 36.8748C20.8333 39.2557 18.8333 41.2557 16.4524 41.2557ZM24.1667 36.1129C23.7857 36.1129 23.4048 36.3986 23.4048 36.8748C23.4048 37.2557 23.7857 37.6367 24.1667 37.6367H29.4048C29.881 37.6367 30.1667 37.2557 30.1667 36.8748C30.1667 36.3986 29.881 36.1129 29.4048 36.1129H24.1667ZM37.1191 30.8748C33.881 30.8748 31.2143 33.5414 31.2143 36.8748C31.2143 40.1129 33.881 42.7795 37.1191 42.7795C40.4524 42.7795 43.1191 40.1129 43.1191 36.8748C43.1191 33.5414 40.4524 30.8748 37.1191 30.8748ZM37.1191 41.2557C34.7381 41.2557 32.7381 39.2557 32.7381 36.8748C32.7381 34.3986 34.7381 32.4938 37.1191 32.4938C39.5952 32.4938 41.5952 34.3986 41.5952 36.8748C41.5952 39.2557 39.5952 41.2557 37.1191 41.2557Z" fill="#660000"/>
<path d="M32.8333 15.351V19.351H28.8333V15.351H32.8333ZM20.9286 10.5891L17.4975 8.53294L17.547 8.45036L17.6004 8.37026L20.9286 10.5891ZM5.40476 36.4938L1.82706 34.705L1.89527 34.5685L1.97368 34.4377L5.40476 36.4938ZM5.40476 37.2557L1.82706 39.0446L1.69993 38.7903L1.61003 38.5206L5.40476 37.2557ZM7.40477 36.1129V40.1129H0.330535L3.97716 34.051L7.40477 36.1129ZM22.0714 11.7319L18.6438 9.67L19.8097 7.73192H22.0714V11.7319ZM31.2143 11.7319V7.73192H35.2143V11.7319H31.2143ZM32.8333 16.97H28.8333V12.97H32.8333V16.97ZM39.0238 16.97V12.97H43.0238V16.97H39.0238ZM46.7381 27.351V23.351H50.7381V27.351H46.7381ZM46.7381 36.1129H50.7381V40.1129H46.7381V36.1129ZM46.7381 16.97V12.97H50.7381V16.97H46.7381ZM46.7381 25.7319H50.7381V29.7319H46.7381V25.7319ZM40.5476 25.7319V29.7319H36.5476V25.7319H40.5476ZM40.5476 16.97H36.5476V12.97H40.5476V16.97ZM44.2619 26.6843V26.5891H52.2619V26.6843H44.2619ZM44.2619 26.5891V26.4938H52.2619V26.5891H44.2619ZM44.2619 26.4938V16.1129H52.2619V26.4938H44.2619ZM44.2619 16.1129C44.2619 17.2233 44.7769 17.999 45.1954 18.4175C45.6139 18.836 46.3896 19.351 47.5 19.351V11.351C48.9914 11.351 50.148 12.0564 50.8522 12.7606C51.5565 13.4649 52.2619 14.6215 52.2619 16.1129H44.2619ZM47.5 19.351H32.8333V11.351H47.5V19.351ZM28.8333 15.351V10.97H36.8333V15.351H28.8333ZM28.8333 10.97C28.8333 11.8916 29.2433 12.8241 29.9996 13.464C30.6893 14.0476 31.4417 14.2081 31.9762 14.2081V6.20811C32.9868 6.20811 34.1679 6.51143 35.1671 7.35695C36.2329 8.25878 36.8333 9.57224 36.8333 10.97H28.8333ZM31.9762 14.2081H21.5952V6.20811H31.9762V14.2081ZM21.5952 14.2081C21.9109 14.2081 22.5143 14.1517 23.1688 13.7881C23.7965 13.4393 24.1319 12.9952 24.2568 12.8079L17.6004 8.37026C17.9157 7.89724 18.4416 7.26261 19.2836 6.79482C20.1523 6.31219 20.9939 6.20811 21.5952 6.20811V14.2081ZM24.3597 12.6452L8.83585 38.55L1.97368 34.4377L17.4975 8.53294L24.3597 12.6452ZM8.98247 38.2827C9.28034 37.687 9.33334 37.1573 9.33334 36.8391C9.33334 36.4994 9.27433 36.2153 9.1995 35.9908L1.61003 38.5206C1.31981 37.65 1.09005 36.179 1.82706 34.705L8.98247 38.2827ZM8.98247 35.4669C8.60083 34.7036 8.06308 34.2907 7.72465 34.0877C7.34721 33.8612 6.78681 33.6367 6.07143 33.6367V41.6367C5.07034 41.6367 4.22422 41.3169 3.60869 40.9476C3.03216 40.6017 2.30394 39.9983 1.82706 39.0446L8.98247 35.4669ZM6.07143 33.6367H8.64286V41.6367H6.07143V33.6367ZM8.64286 33.6367C7.80339 33.6367 7.06634 33.9706 6.53688 34.4594C6.03875 34.9192 5.5 35.7397 5.5 36.8748H13.5C13.5 39.7603 11.0207 41.6367 8.64286 41.6367V33.6367ZM5.5 36.8748C5.5 37.7964 5.90996 38.7289 6.66623 39.3688C7.35595 39.9524 8.1084 40.1129 8.64286 40.1129V32.1129C9.65351 32.1129 10.8345 32.4162 11.8338 33.2617C12.8996 34.1635 13.5 35.477 13.5 36.8748H5.5ZM8.64286 40.1129H7.40477V32.1129H8.64286V40.1129ZM3.97716 34.051L18.6438 9.67L25.499 13.7938L10.8324 38.1748L3.97716 34.051ZM22.0714 7.73192H31.2143V15.7319H22.0714V7.73192ZM35.2143 11.7319V31.0653H27.2143V11.7319H35.2143ZM35.2143 31.0653C35.2143 30.1601 34.8226 29.2878 34.1553 28.6762C33.5398 28.112 32.7582 27.8272 31.9762 27.8272V35.8272C29.7208 35.8272 27.2143 34.0711 27.2143 31.0653H35.2143ZM31.9762 27.8272C31.4417 27.8272 30.6893 27.9876 29.9996 28.5712C29.2433 29.2112 28.8333 30.1437 28.8333 31.0653H36.8333C36.8333 32.463 36.2329 33.7765 35.1671 34.6783C34.1679 35.5238 32.9868 35.8272 31.9762 35.8272V27.8272ZM28.8333 31.0653V16.97H36.8333V31.0653H28.8333ZM32.8333 12.97H39.0238V20.97H32.8333V12.97ZM43.0238 16.97V26.5891H35.0238V16.97H43.0238ZM43.0238 26.5891C43.0238 25.8071 42.739 25.0254 42.1748 24.41C41.5631 23.7427 40.6909 23.351 39.7857 23.351V31.351C36.7799 31.351 35.0238 28.8444 35.0238 26.5891H43.0238ZM39.7857 23.351H46.7381V31.351H39.7857V23.351ZM50.7381 27.351V36.1129H42.7381V27.351H50.7381ZM46.7381 40.1129H44.9286V32.1129H46.7381V40.1129ZM44.9286 40.1129C45.4925 40.1129 46.4132 39.928 47.1975 39.1437C47.9818 38.3594 48.1667 37.4387 48.1667 36.8748H40.1667C40.1667 35.8347 40.4944 34.533 41.5406 33.4868C42.5868 32.4406 43.8884 32.1129 44.9286 32.1129V40.1129ZM48.1667 36.8748C48.1667 36.0928 47.8819 35.3112 47.3177 34.6957C46.706 34.0284 45.8337 33.6367 44.9286 33.6367V41.6367C41.9227 41.6367 40.1667 39.1301 40.1667 36.8748H48.1667ZM44.9286 33.6367H47.5V41.6367H44.9286V33.6367ZM47.5 33.6367C46.3896 33.6367 45.6139 34.1516 45.1954 34.5702C44.7769 34.9887 44.2619 35.7643 44.2619 36.8748H52.2619C52.2619 38.3662 51.5565 39.5228 50.8522 40.227C50.148 40.9313 48.9914 41.6367 47.5 41.6367V33.6367ZM44.2619 36.8748V26.6843H52.2619V36.8748H44.2619ZM50.7381 16.97V25.7319H42.7381V16.97H50.7381ZM46.7381 29.7319H40.5476V21.7319H46.7381V29.7319ZM36.5476 25.7319V16.97H44.5476V25.7319H36.5476ZM40.5476 12.97H46.7381V20.97H40.5476V12.97ZM13.881 12.97C12.7705 12.97 11.9949 13.485 11.5763 13.9035C11.1578 14.322 10.6429 15.0977 10.6429 16.2081H18.6429C18.6429 17.6995 17.9374 18.8561 17.2332 19.5603C16.529 20.2646 15.3724 20.97 13.881 20.97V12.97ZM10.6429 16.2081C10.6429 17.1133 11.0346 17.9855 11.7019 18.5972C12.3173 19.1614 13.099 19.4462 13.881 19.4462V11.4462C16.1363 11.4462 18.6429 13.2023 18.6429 16.2081H10.6429ZM13.881 19.4462H3.5V11.4462H13.881V19.4462ZM3.5 19.4462C4.06394 19.4462 4.98462 19.2613 5.76891 18.477C6.5532 17.6927 6.7381 16.772 6.7381 16.2081H-1.2619C-1.2619 15.168 -0.934142 13.8664 0.112052 12.8202C1.15825 11.774 2.45988 11.4462 3.5 11.4462V19.4462ZM6.7381 16.2081C6.7381 15.4261 6.45328 14.6445 5.8891 14.029C5.27743 13.3618 4.40518 12.97 3.5 12.97V20.97C0.494168 20.97 -1.2619 18.4635 -1.2619 16.2081H6.7381ZM3.5 12.97H13.881V20.97H3.5V12.97ZM3.5 24.5891C4.40518 24.5891 5.27743 24.1973 5.8891 23.5301C6.45328 22.9146 6.7381 22.1329 6.7381 21.351H-1.2619C-1.2619 19.0956 0.494168 16.5891 3.5 16.5891V24.5891ZM6.7381 21.351C6.7381 20.787 6.5532 19.8664 5.76891 19.0821C4.98462 18.2978 4.06394 18.1129 3.5 18.1129V26.1129C2.45988 26.1129 1.15825 25.7851 0.112052 24.7389C-0.934142 23.6927 -1.2619 22.3911 -1.2619 21.351H6.7381ZM3.5 18.1129H10.7381V26.1129H3.5V18.1129ZM10.7381 18.1129C9.95612 18.1129 9.17448 18.3977 8.55901 18.9619C7.89174 19.5735 7.5 20.4458 7.5 21.351H15.5C15.5 24.3568 12.9934 26.1129 10.7381 26.1129V18.1129ZM7.5 21.351C7.5 22.4614 8.01495 23.2371 8.43348 23.6556C8.85201 24.0741 9.62765 24.5891 10.7381 24.5891V16.5891C12.2295 16.5891 13.3861 17.2945 14.0903 17.9987C14.7946 18.703 15.5 19.8596 15.5 21.351H7.5ZM10.7381 24.5891H3.5V16.5891H10.7381V24.5891ZM3.5 29.7319C4.40518 29.7319 5.27743 29.3402 5.8891 28.6729C6.45328 28.0574 6.7381 27.2758 6.7381 26.4938H-1.2619C-1.2619 24.2385 0.494168 21.7319 3.5 21.7319V29.7319ZM6.7381 26.4938C6.7381 25.9299 6.5532 25.0092 5.76891 24.2249C4.98462 23.4406 4.06394 23.2557 3.5 23.2557V31.2557C2.45988 31.2557 1.15825 30.928 0.112052 29.8818C-0.934142 28.8356 -1.2619 27.534 -1.2619 26.4938H6.7381ZM3.5 23.2557H7.59524V31.2557H3.5V23.2557ZM7.59524 23.2557C7.06078 23.2557 6.30834 23.4162 5.61861 23.9998C4.86234 24.6397 4.45238 25.5722 4.45238 26.4938H12.4524C12.4524 27.8916 11.852 29.2051 10.7862 30.1069C9.78691 30.9524 8.60589 31.2557 7.59524 31.2557V23.2557ZM4.45238 26.4938C4.45238 27.6289 4.99113 28.4494 5.48926 28.9092C6.01872 29.398 6.75577 29.7319 7.59524 29.7319V21.7319C9.97309 21.7319 12.4524 23.6083 12.4524 26.4938H4.45238ZM7.59524 29.7319H3.5V21.7319H7.59524V29.7319ZM16.4524 34.8748C15.3282 34.8748 14.4524 35.7506 14.4524 36.8748H6.45238C6.45238 31.3323 10.9099 26.8748 16.4524 26.8748V34.8748ZM14.4524 36.8748C14.4524 37.8622 15.2864 38.7795 16.4524 38.7795V46.7795C10.9517 46.7795 6.45238 42.3636 6.45238 36.8748H14.4524ZM16.4524 38.7795C17.4813 38.7795 18.3571 37.9037 18.3571 36.8748H26.3571C26.3571 42.322 21.8996 46.7795 16.4524 46.7795V38.7795ZM18.3571 36.8748C18.3571 35.7088 17.4398 34.8748 16.4524 34.8748V26.8748C21.9412 26.8748 26.3571 31.3741 26.3571 36.8748H18.3571ZM16.4524 45.2557C11.7106 45.2557 8.07143 41.4079 8.07143 36.8748H16.0714C16.0714 36.9848 16.1131 37.0801 16.1829 37.151C16.2444 37.2134 16.3242 37.2557 16.4524 37.2557V45.2557ZM8.07143 36.8748C8.07143 32.1894 11.7671 28.4938 16.4524 28.4938V36.4938C16.3502 36.4938 16.2856 36.5126 16.2483 36.528C16.2095 36.544 16.1821 36.5639 16.1618 36.5842C16.1415 36.6045 16.1216 36.6319 16.1056 36.6707C16.0902 36.708 16.0714 36.7726 16.0714 36.8748H8.07143ZM16.4524 28.4938C20.9856 28.4938 24.8333 32.133 24.8333 36.8748H16.8333C16.8333 36.7466 16.791 36.6668 16.7286 36.6053C16.6577 36.5355 16.5624 36.4938 16.4524 36.4938V28.4938ZM24.8333 36.8748C24.8333 41.4649 21.0425 45.2557 16.4524 45.2557V37.2557C16.505 37.2557 16.6035 37.2334 16.7073 37.1297C16.8111 37.0259 16.8333 36.9274 16.8333 36.8748H24.8333ZM24.1667 40.1129C24.9486 40.1129 25.7303 39.8281 26.3458 39.2639C27.013 38.6522 27.4048 37.78 27.4048 36.8748H19.4048C19.4048 33.8689 21.9113 32.1129 24.1667 32.1129V40.1129ZM27.4048 36.8748C27.4048 35.7643 26.8898 34.9887 26.4713 34.5702C26.0528 34.1516 25.2771 33.6367 24.1667 33.6367V41.6367C22.6753 41.6367 21.5187 40.9313 20.8144 40.227C20.1102 39.5228 19.4048 38.3662 19.4048 36.8748H27.4048ZM24.1667 33.6367H29.4048V41.6367H24.1667V33.6367ZM29.4048 33.6367C28.4996 33.6367 27.6273 34.0284 27.0157 34.6957C26.4515 35.3112 26.1667 36.0928 26.1667 36.8748H34.1667C34.1667 39.1301 32.4106 41.6367 29.4048 41.6367V33.6367ZM26.1667 36.8748C26.1667 37.4387 26.3516 38.3594 27.1359 39.1437C27.9202 39.928 28.8408 40.1129 29.4048 40.1129V32.1129C30.4449 32.1129 31.7465 32.4406 32.7927 33.4868C33.8389 34.533 34.1667 35.8347 34.1667 36.8748H26.1667ZM29.4048 40.1129H24.1667V32.1129H29.4048V40.1129ZM37.1191 34.8748C36.1316 34.8748 35.2143 35.7088 35.2143 36.8748H27.2143C27.2143 31.3741 31.6303 26.8748 37.1191 26.8748V34.8748ZM35.2143 36.8748C35.2143 37.9037 36.0901 38.7795 37.1191 38.7795V46.7795C31.6718 46.7795 27.2143 42.322 27.2143 36.8748H35.2143ZM37.1191 38.7795C38.285 38.7795 39.1191 37.8622 39.1191 36.8748H47.1191C47.1191 42.3636 42.6197 46.7795 37.1191 46.7795V38.7795ZM39.1191 36.8748C39.1191 35.7506 38.2432 34.8748 37.1191 34.8748V26.8748C42.6615 26.8748 47.1191 31.3323 47.1191 36.8748H39.1191ZM37.1191 45.2557C32.529 45.2557 28.7381 41.4649 28.7381 36.8748H36.7381C36.7381 36.9274 36.7604 37.0259 36.8641 37.1297C36.9679 37.2334 37.0665 37.2557 37.1191 37.2557V45.2557ZM28.7381 36.8748C28.7381 32.133 32.5859 28.4938 37.1191 28.4938V36.4938C37.0091 36.4938 36.9137 36.5355 36.8428 36.6053C36.7804 36.6668 36.7381 36.7466 36.7381 36.8748H28.7381ZM37.1191 28.4938C41.691 28.4938 45.5952 32.0777 45.5952 36.8748H37.5952C37.5952 36.8 37.5813 36.7535 37.5685 36.7238C37.5546 36.6914 37.5329 36.6582 37.4998 36.6261C37.4365 36.5646 37.3167 36.4938 37.1191 36.4938V28.4938ZM45.5952 36.8748C45.5952 41.5205 41.7483 45.2557 37.1191 45.2557V37.2557C37.26 37.2557 37.3833 37.2024 37.4783 37.1088C37.5761 37.0125 37.5952 36.9242 37.5952 36.8748H45.5952Z" fill="#660000" mask="url(#path-1-inside-1_149_17755)"/>
</svg>
