<svg width="81" height="80" viewBox="0 0 81 80" fill="none" xmlns="http://www.w3.org/2000/svg">
<path d="M52.0243 18.6472C50.4881 17.9659 47.5343 16.6159 45.5618 16.6159C43.8281 16.6159 40.5331 17.9097 38.9943 18.6222C37.6293 19.2522 37.4268 19.8009 37.6931 20.6584C37.9668 21.5397 39.0018 22.0359 39.9856 21.8134C39.9856 21.8134 43.9843 19.9234 45.4518 19.9234C46.9456 19.9184 51.0306 21.8372 51.0306 21.8372C52.0143 22.0647 53.0518 21.5584 53.3281 20.6822C53.5918 19.8234 53.3893 19.2547 52.0243 18.6472ZM59.3806 21.8134C59.3806 21.8134 63.3793 19.9259 64.8468 19.9234C66.3431 19.9234 70.4281 21.8372 70.4281 21.8372C71.4118 22.0647 72.4493 21.5584 72.7206 20.6822C72.9893 19.8222 72.7843 19.2534 71.4193 18.6459C69.8881 17.9647 66.9293 16.6147 64.9618 16.6122C63.2206 16.6147 59.9331 17.9084 58.3918 18.6209C57.0243 19.2534 56.8218 19.7997 57.0881 20.6547C57.3631 21.5372 58.3956 22.0384 59.3806 21.8134ZM33.4643 57.7871C28.3156 59.6596 23.0931 58.2846 23.8156 60.2771C24.5406 62.2696 30.9443 66.8784 36.0906 65.0059C41.2368 63.1309 43.1806 55.4846 42.4556 53.4921C41.7281 51.5009 38.6106 55.9146 33.4643 57.7871ZM26.5018 45.1196C26.4581 44.2509 26.0868 43.7984 24.6443 43.7009C23.0281 43.5859 19.8956 43.3372 18.1068 43.9884C16.5293 44.5622 13.9656 46.8271 12.8018 47.9846C11.7743 49.0096 11.7668 49.5734 12.2943 50.2646C12.8318 50.9747 13.9393 51.0821 14.7581 50.5546C14.7581 50.5546 17.7681 47.5171 19.0993 47.0296C20.4568 46.5346 24.8006 46.9271 24.8006 46.9271C25.7693 46.8084 26.5481 46.0084 26.5018 45.1196ZM42.2681 37.2872C40.6493 37.1722 37.5143 36.9234 35.7281 37.5746C34.1481 38.1484 31.5856 40.4134 30.4231 41.5684C29.3931 42.5959 29.3906 43.1596 29.9131 43.8534C30.4531 44.5609 31.5581 44.6709 32.3818 44.1409C32.3818 44.1409 35.3843 41.1034 36.7206 40.6184C38.0781 40.1209 42.4243 40.5134 42.4243 40.5134C43.3931 40.3934 44.1681 39.5934 44.1231 38.7046C44.0793 37.8347 43.7081 37.3847 42.2681 37.2872Z" fill="##21CD9D"/>
<path d="M72.2276 61.3325C70.5651 61.6863 69.3901 62.81 68.3951 63.855C66.4101 66.0112 64.9351 68.3763 63.0776 70.2175C61.2826 72.095 59.1914 73.4887 56.6201 73.7775C54.1664 74.1212 51.5439 73.1862 50.0676 70.7863C49.3714 69.6162 48.9426 68.2038 49.0126 66.8213C49.0563 65.4578 49.5449 64.1461 50.4039 63.0863C50.4264 63.06 50.4539 63.04 50.4764 63.0125C51.1614 63.8403 52.0483 64.4774 53.0514 64.8625C54.3114 65.3725 55.5489 65.5437 56.7626 65.7312C59.1551 66.0312 61.6376 66.2562 64.0989 65.79C65.3403 65.5585 66.5241 65.0849 67.5826 64.3962C68.6306 63.6729 69.5224 62.7462 70.2051 61.6713C71.5914 59.5325 72.1539 56.9325 72.0539 54.3838C71.9334 51.7924 71.2424 49.2597 70.0301 46.9663C69.4201 45.8163 68.6489 44.6863 67.7226 43.7213C73.1126 36.655 78.0051 27.5 78.0039 17.23C78.0039 12.135 77.4501 7.26375 76.4364 2.78375C70.9264 6.41875 63.3801 8.66 55.0501 8.66C46.5051 8.66 38.7851 6.29875 33.2464 2.5C32.3989 6.155 31.8739 10.0812 31.6926 14.1737C31.6639 14.1737 31.6351 14.165 31.6064 14.165C30.7614 14.165 29.9976 14.5062 29.4426 15.0612C27.8664 14.0564 26.0249 13.5478 24.1564 13.6012C22.6701 13.66 20.9364 14.2013 19.8576 15.6862C19.3176 16.3987 19.0514 17.2875 19.0001 18.1125C18.9289 18.9475 19.0926 19.7337 19.3051 20.4562C19.5351 21.1763 19.8501 21.8425 20.2089 22.4613C20.5776 23.0688 20.8726 23.56 21.1151 24.1488C21.5851 25.2588 21.8064 26.5 21.6189 27.72C20.8007 27.4815 20.031 27.1007 19.3451 26.595C17.6039 25.3525 16.1914 23.665 15.4464 21.7563C14.7064 19.8563 14.5476 17.8912 15.0064 16.0337C15.4801 14.1788 16.5251 12.4788 17.7989 10.9625C19.1038 9.41844 20.6547 8.10031 22.3889 7.06125C24.1414 6.04125 26.0901 5.215 28.2576 5.26375L28.3139 5.02C26.1876 4.14875 23.6876 4.49 21.5539 5.3075C19.3814 6.13 17.4226 7.49 15.8164 9.21125C14.2276 10.9425 13.0351 13.1425 12.6501 15.5613C12.4474 16.7663 12.4674 17.9984 12.7089 19.1963C12.9736 20.3617 13.453 21.4676 14.1226 22.4575C15.4264 24.3962 17.1626 25.8638 18.8839 27.2163C19.6539 27.7863 20.4364 28.3675 21.3501 28.8188C21.0414 29.7047 20.5334 30.5078 19.8651 31.1663C18.9689 32.07 17.7726 32.6213 16.5939 32.8238C14.1401 33.205 12.0376 31.8375 10.8926 29.8113C9.64512 27.7313 9.41262 25.3263 9.67387 22.8438C9.87387 20.3387 10.6451 17.7925 10.9901 15C11.1364 13.62 11.2364 12.06 10.5439 10.6125C10.208 9.91341 9.67366 9.32869 9.00762 8.93125C8.38262 8.53875 7.69887 8.32375 7.02262 8.19875L6.94137 8.435C8.12762 9.0575 9.11637 9.95625 9.35137 11.0713C9.61762 12.1725 9.37137 13.405 9.05387 14.64C8.37512 17.115 7.39637 19.6988 7.02012 22.55C6.86137 23.9713 6.83512 25.47 7.15137 26.945C7.4583 28.42 8.05204 29.8202 8.89887 31.0662C9.72887 32.3238 10.9201 33.4513 12.3951 34.04C13.8601 34.65 15.5126 34.6162 16.9164 34.1525C19.3676 33.3325 21.1764 31.395 22.0464 29.1225C23.0989 29.5263 24.4201 29.625 25.5751 29.1313C26.8251 28.6238 27.7376 27.6987 28.4314 26.7463C29.1151 25.775 29.6564 24.7637 30.0864 23.7212C30.5497 22.5854 30.9226 21.4304 31.2051 20.2563C31.3364 20.2738 31.4664 20.2962 31.6026 20.2962C31.6526 20.2962 31.7001 20.2838 31.7501 20.2812C32.0351 23.2625 32.7226 26.1512 33.6876 28.9125C30.9387 30.7158 27.9898 32.194 24.9001 33.3175C20.1101 35.06 15.3114 35.8862 10.8589 35.8862C8.07387 35.8862 5.42637 35.5638 3.00012 34.9375C3.54762 39.4363 4.66887 44.1562 6.39262 48.8925C13.6889 68.9362 40.7301 77.5 40.7301 77.5C40.7301 77.5 46.1039 69.0312 48.9301 57.9525C48.9293 57.9642 48.9276 57.975 48.9251 57.985C48.8301 59.2475 49.1401 60.6488 49.8214 62.0037C49.8551 62.0737 49.9076 62.1312 49.9451 62.1975C49.8664 62.3 49.7751 62.3937 49.7001 62.4987C47.9764 64.8888 47.4614 68.255 48.7676 71.3788C49.4176 72.9163 50.5914 74.3863 52.1439 75.265C53.6839 76.1637 55.4539 76.4587 57.0614 76.3512C58.6518 76.2699 60.208 75.8592 61.6314 75.145C63.0376 74.4437 64.2189 73.4263 65.2401 72.3425C67.2489 70.1213 68.6039 67.55 70.0889 65.3088C70.8476 64.2125 71.6539 63.1775 72.7276 62.6788C73.7926 62.1438 75.2276 62.4125 76.5901 63.04L76.7201 62.81C76.1289 62.3 75.4626 61.8462 74.6914 61.5575C73.9289 61.26 73.0426 61.15 72.2276 61.3325ZM28.3264 22.8463C27.2764 24.6438 26.0976 26.3838 24.6939 27.3338C24.0639 27.7525 23.2889 27.955 22.4239 27.8713C22.7256 26.5114 22.7324 25.1027 22.4439 23.74C22.2976 23.0413 22.0314 22.3075 21.8089 21.7088C21.5971 21.1331 21.4329 20.5412 21.3176 19.9388C21.0926 18.7763 21.1639 17.7075 21.6639 16.96C22.1551 16.1987 23.1851 15.7075 24.3351 15.5288C25.7751 15.3238 27.3151 15.4963 28.8039 15.9963C28.6376 16.375 28.5414 16.79 28.5414 17.23C28.5414 18.33 29.1264 19.2862 29.9951 19.8263C29.4389 20.8538 28.8989 21.8675 28.3264 22.8463ZM51.9714 55.09C51.9926 54.9725 52.0201 54.855 52.0426 54.7375C53.7239 56.2488 54.8039 57.085 54.8039 57.085C54.8039 57.085 56.4264 55.8338 58.8026 53.6012C59.1139 54.39 59.2414 55.17 59.0689 55.8112C58.8339 56.7437 58.0314 57.5175 56.9376 58.0912C56.3951 58.3787 55.8001 58.6338 55.1651 58.8363C54.5226 59.0387 53.7439 59.295 53.0801 59.6325C52.5926 59.8822 52.1279 60.1742 51.6914 60.505C51.4339 58.8575 51.6314 56.9587 51.9714 55.09ZM52.6301 51.8763C52.7301 51.4087 52.8326 50.9437 52.9301 50.47C53.2576 50.3563 53.5739 50.2 53.8526 49.9688C54.2039 49.6775 54.4676 49.3162 54.6489 48.9175C55.7049 49.6047 56.652 50.4461 57.4589 51.4137C56.5929 52.2427 55.7068 53.0505 54.8014 53.8363C54.065 53.1971 53.3411 52.5436 52.6301 51.8763ZM68.0889 47.6562C68.8014 49.81 69.1701 52.0338 69.1576 54.1825C69.1501 56.3263 68.8189 58.43 67.9026 60.2075C66.9701 61.98 65.4489 63.3575 63.4889 64.2312C61.5164 65.1075 59.1451 65.3 56.8164 64.8975C55.6639 64.715 54.5164 64.3113 53.5914 63.6863C52.8809 63.2198 52.3266 62.551 52.0001 61.7662C52.5407 61.4602 53.1183 61.225 53.7189 61.0662C54.3664 60.885 54.9739 60.8175 55.7251 60.7388C56.4983 60.6467 57.258 60.4646 57.9889 60.1963C58.7214 59.9038 59.4664 59.525 60.0839 58.91C60.7064 58.3137 61.2239 57.4937 61.4051 56.5462C61.7439 54.9113 61.2001 53.32 60.4001 52.0563C62.4989 49.975 64.4639 47.9512 66.8689 44.8275C67.3664 45.7425 67.7576 46.6987 68.0889 47.6562ZM39.6139 74.4388C33.5401 72.1225 14.4626 63.7375 8.74887 48.0363C7.56475 44.7969 6.6508 41.4651 6.01637 38.075C7.58262 38.2862 9.20137 38.3925 10.8601 38.3925C15.7151 38.3925 20.8664 37.4525 25.7589 35.6725C32.2339 33.3137 37.9126 29.6512 42.0889 25.1838C43.7346 28.1287 45.1392 31.2021 46.2889 34.3738C51.9939 50.0438 42.7714 68.7562 39.6139 74.4388ZM48.8739 34.2188C48.7951 33.9837 48.7289 33.7487 48.6439 33.5163C46.9539 28.8762 44.8326 24.625 42.4251 20.8813C40.6876 23.2213 38.4464 25.4275 35.8276 27.41C34.9083 24.653 34.3544 21.7873 34.1801 18.8862C34.5069 18.382 34.6775 17.7923 34.6704 17.1915C34.6632 16.5906 34.4788 16.0052 34.1401 15.5087C34.2201 12.4262 34.4989 9.4025 34.9976 6.475C40.7176 9.51375 47.7001 11.16 55.0501 11.16C62.1901 11.16 69.0151 9.59625 74.6551 6.70875C75.2164 10.1088 75.5014 13.635 75.5014 17.2312C75.5039 31.1512 65.3551 43.5513 58.7739 50.1287C57.6692 49.0805 56.3633 48.2674 54.9351 47.7388C54.9716 46.8306 54.6655 45.9419 54.0776 45.2488C53.1701 44.1562 51.7951 43.7163 50.5901 44.0088C50.549 42.777 50.4472 41.548 50.2851 40.3263C51.6501 40.0038 53.1776 39.7388 54.8026 39.7388C60.4714 39.7388 65.0614 42.9275 65.0614 40.73C65.0614 38.5375 60.4689 31.795 54.8051 31.795C52.5914 31.795 50.5501 32.8337 48.8739 34.2188Z" fill="##21CD9D"/>
</svg>
