<svg width="89" height="89" viewBox="0 0 89 89" fill="none" xmlns="http://www.w3.org/2000/svg">
<path d="M74.3667 52.8659L66.4996 52.5988C65.4084 51.9429 64.3825 51.184 63.4359 50.3326C58.9025 46.8658 52.1001 41.6661 41.1664 41.1328L26.0995 40.4626C22.6819 40.319 19.3064 41.2605 16.4564 43.1523C13.6065 45.044 11.4281 47.789 10.2332 50.9942H9.83302C8.62742 50.9362 7.42305 51.1317 6.29769 51.568C5.17233 52.0044 4.15099 52.6719 3.29961 53.5275C2.42165 54.3764 1.72184 55.3919 1.24115 56.5145C0.760453 57.6372 0.50853 58.8445 0.500122 60.0657V70.5973C0.522729 71.683 0.920109 72.7276 1.6249 73.5538C2.32968 74.3801 3.29851 74.9371 4.36713 75.1306C4.67914 77.8471 5.97933 80.3539 8.02009 82.1736C10.0609 83.9934 12.6996 84.999 15.4339 84.999C18.1682 84.999 20.807 83.9934 22.8477 82.1736C24.8885 80.3539 26.1887 77.8471 26.5007 75.1306H61.2961C61.6269 77.8399 62.9332 80.336 64.9707 82.1521C67.0082 83.9683 69.6373 84.9802 72.3667 84.9987C75.1677 85.0043 77.8668 83.9482 79.9203 82.0432C81.9738 80.1383 83.2291 77.5259 83.4335 74.7324C84.8972 74.2107 86.1667 73.2544 87.0722 71.9915C87.9776 70.7287 88.4758 69.2194 88.5001 67.6657C88.5228 63.8478 87.0616 60.1703 84.4248 57.4091C81.7879 54.648 78.1816 53.019 74.3667 52.8659ZM85.3004 63.7996C84.0053 63.5032 82.8378 62.8028 81.9667 61.7996C80.68 60.4933 79.8398 58.8132 79.5665 57C82.2753 58.4518 84.3273 60.8844 85.3004 63.7996ZM61.8332 52.4657L32.2337 51.6644V43.399L41.0333 43.7992C51.1666 44.1965 57.2998 48.9989 61.8332 52.4657ZM25.9674 42.9988L29.5673 43.1319V51.3982L13.0337 50.998C14.1603 48.5377 15.9893 46.4656 18.2907 45.0423C20.5921 43.6189 23.263 42.9079 25.9674 42.9988ZM5.16657 55.3983C5.98435 54.6133 6.99718 54.0612 8.1001 53.7994C8.77029 58.3328 6.23313 61.9374 3.30057 61.5325V59.9326C3.24659 59.0847 3.38658 58.2356 3.70992 57.4499C4.03325 56.6643 4.53142 55.9626 5.16657 55.3983ZM3.16653 70.4661V64.1989C7.43278 64.466 11.5669 59.7947 10.6344 53.5323L29.4342 54.0656V72.3321H26.4997C26.1686 69.6243 24.8631 67.1296 22.8271 65.314C20.7911 63.4984 18.1637 62.486 15.4358 62.4659C12.7324 62.4986 10.13 63.4981 8.09964 65.2834C6.06932 67.0687 4.74526 69.522 4.36713 72.199C4.00732 72.0776 3.69623 71.8435 3.47997 71.5313C3.26371 71.2192 3.15379 70.8456 3.16653 70.4661ZM15.4358 82.1992C13.1912 82.2138 11.0324 81.3377 9.43271 79.763C7.83306 78.1882 6.9231 76.0435 6.90237 73.7989C6.92209 71.5603 7.8207 69.4191 9.40447 67.8369C10.9883 66.2547 13.1303 65.3583 15.3689 65.3408C17.6075 65.3234 19.7634 66.1863 21.3716 67.7436C22.9799 69.3009 23.9118 71.4278 23.9664 73.6658C23.9699 74.7872 23.7517 75.8982 23.3243 76.9349C22.8969 77.9717 22.2687 78.9137 21.4759 79.7067C20.6831 80.4998 19.7413 81.1283 18.7047 81.5561C17.6681 81.9838 16.5572 82.2024 15.4358 82.1992ZM72.3686 82.1992C71.2468 82.203 70.1354 81.9849 69.0982 81.5574C68.0611 81.13 67.1187 80.5016 66.3254 79.7084C65.5321 78.9153 64.9035 77.9731 64.4758 76.936C64.0481 75.899 63.8297 74.7876 63.8332 73.6658C63.8488 71.4074 64.7528 69.2459 66.3498 67.6489C67.9468 66.0519 70.1083 65.1479 72.3667 65.1323C74.6299 65.1323 76.8004 66.0314 78.4008 67.6317C80.0011 69.2321 80.9002 71.4026 80.9002 73.6658C80.9002 75.929 80.0011 78.0995 78.4008 79.6999C76.8004 81.3002 74.6299 82.1992 72.3667 82.1992H72.3686ZM83.3023 71.6677C82.8123 69.0458 81.3974 66.687 79.3148 65.0205C77.2323 63.354 74.6207 62.4905 71.9552 62.5872C69.2897 62.6839 66.7476 63.7344 64.7913 65.5475C62.8351 67.3605 61.5947 69.8157 61.2961 72.4661H32.2337V54.3327C46.6333 54.7329 59.1668 55.1331 74.3667 55.5323C75.2275 55.5243 76.0836 55.6596 76.9001 55.9325C76.8978 57.3687 77.1792 58.7912 77.7283 60.1183C78.2774 61.4454 79.0833 62.6509 80.0998 63.6656C81.6102 65.3554 83.7087 66.405 85.9668 66.6001V67.5335C85.8921 68.3874 85.61 69.2101 85.1452 69.9302C84.6804 70.6503 84.0468 71.2461 83.2994 71.6658L83.3023 71.6677Z" fill="#21CD9D"/>
<path d="M46.1 59.5324C44.367 60.8661 43.1664 60.8661 41.6958 59.5324C41.5645 59.4186 41.4121 59.3318 41.2472 59.2769C41.0823 59.2221 40.9083 59.2002 40.7349 59.2126C40.5616 59.225 40.3924 59.2714 40.2371 59.3492C40.0817 59.427 39.9431 59.5346 39.8294 59.6659C39.7156 59.7973 39.6288 59.9497 39.5739 60.1146C39.519 60.2795 39.4972 60.4535 39.5096 60.6268C39.522 60.8002 39.5684 60.9693 39.6462 61.1247C39.724 61.2801 39.8316 61.4186 39.9629 61.5324C42.3632 63.7986 45.1626 63.6656 47.83 61.5324C48.0923 61.3059 48.2639 60.9921 48.313 60.6489C48.3621 60.3058 48.2854 59.9565 48.0971 59.6655C47.8142 59.4493 47.4739 59.3213 47.1186 59.2976C46.7634 59.274 46.409 59.3556 46.1 59.5324Z" fill="#21CD9D"/>
<path d="M15.433 68.9993C14.51 68.9993 13.6078 69.273 12.8404 69.7858C12.073 70.2985 11.4749 71.0273 11.1217 71.88C10.7685 72.7327 10.6761 73.671 10.8562 74.5762C11.0362 75.4814 11.4807 76.3128 12.1333 76.9655C12.7859 77.6181 13.6174 78.0625 14.5226 78.2426C15.4278 78.4226 16.3661 78.3302 17.2187 77.977C18.0714 77.6238 18.8002 77.0257 19.313 76.2583C19.8257 75.4909 20.0994 74.5887 20.0994 73.6658C20.0845 72.4328 19.5881 71.2545 18.7162 70.3826C17.8442 69.5107 16.666 69.0142 15.433 68.9993ZM15.433 75.6658C15.0374 75.6658 14.6507 75.5485 14.3218 75.3288C13.9929 75.109 13.7365 74.7966 13.5852 74.4312C13.4338 74.0657 13.3942 73.6636 13.4713 73.2756C13.5485 72.8876 13.739 72.5312 14.0187 72.2515C14.2984 71.9718 14.6548 71.7813 15.0428 71.7042C15.4307 71.627 15.8329 71.6666 16.1983 71.818C16.5638 71.9694 16.8762 72.2257 17.0959 72.5546C17.3157 72.8835 17.433 73.2702 17.433 73.6658C17.4201 74.1922 17.2053 74.6934 16.833 75.0658C16.4606 75.4381 15.9594 75.653 15.433 75.6658Z" fill="#21CD9D"/>
<path d="M72.3667 68.9993C71.4438 68.9993 70.5416 69.273 69.7742 69.7858C69.0068 70.2985 68.4087 71.0273 68.0555 71.88C67.7023 72.7327 67.6099 73.671 67.7899 74.5762C67.97 75.4814 68.4144 76.3128 69.067 76.9655C69.7196 77.6181 70.5511 78.0625 71.4563 78.2426C72.3615 78.4226 73.2998 78.3302 74.1525 77.977C75.0052 77.6238 75.734 77.0257 76.2467 76.2583C76.7595 75.4909 77.0332 74.5887 77.0332 73.6658C77.0183 72.4328 76.5218 71.2545 75.6499 70.3826C74.778 69.5107 73.5997 69.0142 72.3667 68.9993ZM72.3667 75.6658C71.9711 75.6658 71.5844 75.5485 71.2555 75.3288C70.9266 75.109 70.6703 74.7966 70.5189 74.4312C70.3675 74.0657 70.3279 73.6636 70.4051 73.2756C70.4823 72.8876 70.6728 72.5312 70.9525 72.2515C71.2322 71.9718 71.5885 71.7813 71.9765 71.7042C72.3645 71.627 72.7666 71.6666 73.1321 71.818C73.4976 71.9694 73.8099 72.2257 74.0297 72.5546C74.2495 72.8835 74.3668 73.2702 74.3668 73.6658C74.3539 74.1922 74.139 74.6934 73.7667 75.0658C73.3944 75.4381 72.8931 75.653 72.3667 75.6658Z" fill="#21CD9D"/>
<path d="M65.2722 45.7331C65.9424 45.063 81.0055 29.5997 81.0055 20.667C81.0055 16.2467 79.2495 12.0075 76.1239 8.88187C72.9983 5.75626 68.7591 4.00031 64.3388 4.00031C59.9185 4.00031 55.6792 5.75626 52.5536 8.88187C49.428 12.0075 47.6721 16.2467 47.6721 20.667C47.6721 29.6007 62.7389 45.0668 63.4053 45.7331C63.5255 45.8599 63.6703 45.9608 63.8308 46.0297C63.9912 46.0987 64.1641 46.1343 64.3388 46.1343C64.5134 46.1343 64.6863 46.0987 64.8468 46.0297C65.0073 45.9608 65.152 45.8599 65.2722 45.7331ZM64.3388 6.67054C68.0444 6.69264 71.592 8.17423 74.2127 10.7942C76.8334 13.4142 78.316 16.9614 78.3391 20.667C78.3391 26.6671 69.0062 37.867 64.3388 42.8006C59.6723 37.867 50.3385 26.6671 50.3385 20.667C50.3382 18.8284 50.7002 17.0077 51.4037 15.309C52.1072 13.6103 53.1384 12.0668 54.4385 10.7667C55.7386 9.46665 57.2821 8.4354 58.9808 7.73191C60.6795 7.02842 62.5002 6.66646 64.3388 6.66671V6.67054Z" fill="#21CD9D"/>
<path d="M72.6051 20.667C72.6051 19.0056 72.1124 17.3815 71.1894 16C70.2663 14.6186 68.9544 13.5419 67.4194 12.9061C65.8844 12.2703 64.1954 12.1039 62.5659 12.4281C60.9364 12.7522 59.4396 13.5523 58.2647 14.7271C57.0899 15.9019 56.2899 17.3987 55.9657 19.0282C55.6416 20.6577 55.808 22.3468 56.4438 23.8817C57.0796 25.4167 58.1563 26.7287 59.5377 27.6517C60.9191 28.5747 62.5433 29.0674 64.2047 29.0674C65.3092 29.0721 66.4036 28.858 67.4249 28.4375C68.4462 28.017 69.3741 27.3984 70.1551 26.6175C70.9361 25.8365 71.5547 24.9086 71.9752 23.8873C72.3957 22.866 72.6098 21.7715 72.6051 20.667ZM58.6048 20.667C58.6048 19.5332 58.941 18.4247 59.571 17.482C60.2009 16.5392 61.0963 15.8043 62.1439 15.3704C63.1914 14.9365 64.3441 14.823 65.4562 15.0442C66.5683 15.2654 67.5899 15.8114 68.3916 16.6132C69.1934 17.415 69.7394 18.4365 69.9606 19.5486C70.1818 20.6607 70.0683 21.8134 69.6344 22.861C69.2005 23.9085 68.4657 24.8039 67.5229 25.4339C66.5801 26.0638 65.4717 26.4001 64.3378 26.4001C63.5834 26.4055 62.8355 26.261 62.1375 25.9748C61.4396 25.6886 60.8054 25.2665 60.2721 24.733C59.7387 24.1996 59.3167 23.5654 59.0306 22.8674C58.7446 22.1693 58.6001 21.4214 58.6057 20.667H58.6048Z" fill="#21CD9D"/>
</svg>
